<?xml version="1.0" encoding="UTF-8"?>
<svg id="Layer_1" xmlns="http://www.w3.org/2000/svg" viewBox="0 0 631.8 346.54">
  <path d="M435.45,28.42c.72-2.14,2.62-1.94,4.23-1.95,5.83-.03,11.65.14,17.48.13,7.38-.01,14.76-.15,22.14-.19,3.5-.02,3.93.36,4.65,3.79.72,3.4.76,6.76-.59,10.04-.22.54-.56,1.24.36,1.53,2.93.92,4.7,3,5.72,5.78.27.72.69.93,1.37.98.93.07,1.86.15,2.77.3,2.14.36,3.3,1.57,3.48,3.73.12,1.47.11,2.95.12,4.42,0,1.39-.1,2.7,1.3,3.72.9.65.87,1.94.83,3.04-.1,2.95-.24,5.9-.34,8.84-.02.61-.13,1.58.19,1.78,3.27,2.07,3.4,6.34,6.56,8.72,3.01,2.26,5.51,5.4,6.38,9.46.72,3.36.22,6.33-1.97,8.95-.79.94-.85,1.49-.04,2.52,2.4,3.06,4.29,6.46,5.89,10.01.54,1.2.95,1.46,2.17.66,3.65-2.42,3.85-2.44,5.79,1.31,2.38,4.62,5.16,8.96,8.16,13.17,3.28,4.6,8,6.75,13.44,7.34,3.91.42,7.73-.43,11.46-1.61,9.25-2.93,18.35-2.63,27.24,1.37,6.3,2.84,12.53,5.74,17.61,10.69,6.7,6.53,12.37,13.66,15.05,22.82,1.26,4.3,3.1,8.39,3.5,12.98.89,10.14-1.6,18.91-8.74,26.47-3.42,3.62-7.35,6.66-10.69,10.34-2.53,2.8-4.86,5.65-5.05,9.67-.31,6.68,2.96,11.33,9.16,14.18,4.84,2.23,9.83,4.25,14.26,7.33.97.67,1.91,1.38,2.57,2.34,4.02,5.91,8.07,11.78,8.76,19.26.55,5.94,1.71,11.82.76,17.82-.6,3.75-1.89,7.12-4.24,10.18-4.66,6.07-10.15,11.09-17.11,14.4-2.28,1.09-4.67,1.71-7.19,1.72-5.81.03-11.56.06-17.36-1.1-4.24-.85-8.6-1.17-12.75-2.53-1.78-.58-3.5-1.27-5.11-2.22-1.78-1.05-1.98-.92-2.1,1.21-.16,2.79-.42,5.58-.05,8.37.06.48.25,1.29-.51,1.31-.79.02-.49-.81-.55-1.28-.62-5.11-.59-10.24-.26-15.35.24-3.71.16-7.42.2-10.37-.44,6.2-1.42,13.14-1.18,20.14.06,1.71.09,3.42.24,5.12.28,3.03.28,2.91-2.77,3.84-4.65,1.41-9.34,2.68-13.61,5.15-6.91,4.01-13.48,8.34-17.23,15.8-.36.71-.74,1.53-1.67,2-.89-3.24-3.9-2.9-6.17-3.38-11.11-2.39-22.44-3.24-33.73-4.28-10.29-.95-20.61-1.52-30.93-1.78-12.89-.33-25.78-.32-38.67.04-9,.25-18.02-.02-27.02.57-10.58.7-21.12-.03-31.67-.55-7.37-.37-14.76.32-22.12-.13-9.61-.59-19.22-1.2-28.86-1.33-11.43-.15-22.82,1.14-34.24.75-15.68-.53-31.36-.74-47.03-1.66-12.88-.75-25.76.56-38.64,1.19-13.21.65-26.23,3.05-39.4,3.93-5.65.38-11.33.48-16.99.7-.79.03-1.48-.15-2.15-.68-9.32-7.38-18.97-14.29-29.23-20.29-2.94-1.72-6.09-3.11-9.22-4.45-1.73-.74-2.6-1.66-2.46-3.64.21-2.86.11-5.75.29-8.61.1-1.61-.5-2.02-2.01-1.87-4.97.49-9.94.53-14.84-.5-6.35-1.35-12.22-3.93-17.98-6.91-5.3-2.74-10.78-5.15-16.27-7.5-3.84-1.64-7.24-3.87-10.39-6.56-8.18-7-14.47-15.41-19.75-24.8-3.98-7.08-6.84-14.42-8.18-22.35-1.43-8.47.16-16.27,6.12-22.73,2.92-3.17,6.96-4.39,11.14-4.69,5.01-.36,9.92-1.15,14.36-3.52,10.68-5.72,15.28-11.54,13.1-23.65-1.54-8.54-4.67-16.71-8.17-24.67-2.27-5.17-2.76-10.29-.65-15.57.89-2.23,1.84-4.45,2.77-6.66,3.2-7.57,14.87-12.83,22.4-9.71,3.27,1.36,6.81,2.14,10.28,2.96,8.31,1.95,13.98-.36,19.52-7,3.01-3.61,4.85-7.89,6.84-12.1,4.33-9.11,10.67-13.05,20.3-13.42,1.1-.04,1.35.37,1.63,1.37,1.47,5.12,1.52,5.17,6.99,4.33,4.46-.69,8.94-1.06,13.43-1.42,1.36-.11,2.14-.53,2.41-1.94.76-4.04,3.08-7.24,5.73-10.22.71-.8,1.14-1.59,1.2-2.67.25-4.55,2.17-8.51,4.39-12.37.23-.4.62-.76.72-1.19.93-3.93,3.2-7.52,2.56-11.84-.33-2.19.04-4.29,1.2-6.46.9-1.68.48-4.09.57-6.17.07-1.58-.06-3.15,2.22-3.33.58-.05,1.12-.75,1.67-1.16-.22.65-.53,1.29-.65,1.96-.13.69.12,1.33.99,1.13,1.48-.33,2.95.07,4.41-.06,1.24-.12,2.83.16,2.67-1.95-.02-.3.2-.62.57-.62.19,0,.48.15.55.3.34.81.34,1.68.07,2.5-.29.9-1.01.36-1.58.37-1.32.03-2.64.12-3.96.14-.94.01-1.67.12-1.66,1.36,0,1.2.32,1.93,1.68,1.91,2.02-.02,4.04.13,6.05.02,7.76-.42,15.52.03,23.26.2,10.11.21,20.17-.69,30.25-.44.97.02,1.85-.11,2.04-1.38.2-1.31-.51-1.61-1.58-1.69-.35-.03-.51-.28-.45-.65.39-.78,2.29.1,1.81-1.47-.34-1.09-1.12-2.05-2.54-2-.7.03-1.4.01-2.1.01-2.73,0-5.47,0-8.2,0v-.66c3.02,0,6.03.03,9.04-.02.83-.02,2.12.4,2.16-1.05.04-1.61-1.35-1.19-2.25-1.21-5.12-.12-10.24-.16-15.35-.25-9.23-.16-18.47.31-27.68-.52-.73-.07-1.89-.4-2.1.46-.49,2.03-1.96,1.56-3.27,1.59-2.48.06-4.96.27-7.44-.14-.61-.1-1.39-.18-1.53.64-.35,2.15-1.92,1.56-3.25,1.54,2.64-3.01,6.12-2.8,9.69-2.83,5.35-.03,5.35-.21,4.63-5.56-.02-.15-.09-.3-.12-.45-.41-2.43.22-3.31,2.77-3.35,5.82-.08,11.65-.06,17.48-.06,4.12,0,8.23.04,12.35.05,1.37,0,2.67.07,3.29,1.61.32.8,1.06.81,1.76.87,7.13.62,14.04-.32,20.66-3.1.76-.32,1.5-.33,2.27-.34,5.75-.01,11.49.07,17.23.35,5.5.27,11.02.06,16.53.07,3.55,0,4.25.48,5.31,3.88.7,2.24,1.77,4.09,4.12,4.91,1.32.46,1.34,1.54,1.28,2.68-.09,1.59-.54,3.17-.22,4.95,2.27-1.36,3.46-3.52,5.01-5.29,4.95-5.66,9.74-11.45,14.6-17.2,2.8-3.31,5.55-6.68,8.41-9.93,1.1-1.25,1.54-2.52,1.54-4.19-.02-4.81-.38-5.54,5.95-5.71,1.56-.04,3.34-.14,4.04,1.95.25.73,1.07.4,1.67.42,8.85.24,17.71.03,26.55.63,1.19.08,2.12.12,2.7-1.4.51-1.33,8.31-1.24,9.18-.02.8,1.13.99,2.53.75,3.8-.54,2.97.89,5.08,2.73,7.04,5.72,6.12,11.02,12.6,16.49,18.94,4.56,5.29,9.1,10.59,13.71,15.84,1.63,1.85,3.7,1.66,5.18-.35.63-.85,1.57-1,2.45-1.19,4.02-.87,8.03-.36,12.03.26.37.06.89.15,1.07.41,2.34,3.39,5.76,2.25,8.92,2.16.78-.02,1.55-.11,2.33-.14.69-.02,1.05-.2,1.25-1,.66-2.67,2.16-4.65,5.01-5.29,1.28-.29,1.13-.82.78-1.98-1.02-3.34-.97-6.82-.46-10.27.09-.63.6-1.26,1.37-1.45-1.81,3.31-.85,6.85-.64,10.25.16,2.57,1.43,3.17,4.19,3.25,11.01.32,22.03.33,33.04.02,2.79-.08,5.59-.06,8.38-.03,1.12.01,1.68-.27,2.2-1.45,1.12-2.54,1.07-5.2.91-7.74-.32-5.1-.92-5.46-5.99-5.37-10.32.19-20.65.26-30.98.13q-5-.06-5.1,5.08c-.03,1.83-.65,2.11-3.48,2.06-1.85-.03-1.77-1.19-1.6-2.37.21-1.49.58-2.95.88-4.42-.89-.16-1.29.45-1.87.64ZM154.83,79.65c-.16.16-.31.33-.47.49-.15.16-.31.32-.46.47-1.29.57-2.44,1.3-3.26,3.17,1.69-.98,2.21-2.34,3.23-3.19.15-.16.31-.31.46-.47.17-.16.33-.31.5-.47l.08-.09-.09.09ZM504.46,83.4l.02-.02c.16.15.31.31.47.46.46.46.91.92,1.37,1.39.17.16.34.33.51.49.16.15.32.3.48.45.12.59.34,1.1.9,1.4,1.32,3.3,3.33,6.42,2.78,10.23-.05.09-.1.17-.15.26.04-.1.08-.19.12-.29,1.17-3.67.02-7.86-2.78-10.18-.07-.62-.5-1-.9-1.4-.16-.15-.32-.3-.48-.45-.17-.16-.34-.33-.51-.49-.15-.77-.59-1.24-1.37-1.39-.15-.15-.31-.31-.46-.46ZM509.13,101.08l-.07.07.08-.07s.07-.02.11-.03c-.04.01-.08.02-.11.03ZM43.41,126.71c-.16.17-.31.33-.47.5-.16.16-.31.31-.47.47l-.09.06.06-.09c.16-.15.31-.31.47-.46.17-.16.33-.31.5-.47l.08-.09-.08.08ZM606.57,212.93c.15-.17.31-.33.46-.5.16-.16.31-.31.47-.47.15-.16.31-.31.46-.47.16-.15.31-.31.47-.46.16-.15.31-.31.47-.46l.08-.06s-.06.09-.06.09c-.16.15-.31.31-.47.46-.16.15-.31.31-.47.46-.15.16-.31.31-.46.47-.16.16-.31.31-.47.47-.16.16-.33.31-.49.47l-.07.08s.08-.08.08-.08ZM613.09,205.97l-.09.06s.06-.09.06-.09c.17-.17.33-.34.5-.5.14-.31.28-.61.41-.92.17-.16.34-.32.51-.47.33-.23.4-.57.42-.94,0,0,.03.03.03.03-.14.31-.28.62-.42.94-.17.16-.34.32-.51.47-.14.31-.28.61-.42.92-.17.17-.33.33-.5.5ZM512.85,141.62l.05.06-.07-.05c-.04-.07-.07-.13-.11-.2.04.06.08.13.12.19ZM144.57,100.63l.09.07-.09-.08c-.16-.32-.31-.63-.47-.95-.14-.17.16-.57-.29-.59.11.19.22.38.32.56.15.33.29.66.44.99ZM68.59,175.65l-.05-.06s.06.05.06.05c0,0-.01,0-.02,0ZM165.98,97.29c.41-.37.46-.86.47-1.37.64-.85.87-1.81.62-2.87-.2.97-.4,1.93-.6,2.9-.16.46-.32.92-.48,1.38-.03.04-.07.07-.1.11.03-.05.06-.09.09-.14ZM489.05,94.6c-.02-.22,0-.45-.07-.66-.05-.16-.24-.1-.21.08.04.19.2.37.31.55.07.71.02,1.47.75,2.19-.2-.89-.31-1.58-.78-2.17ZM569.74,244.17l.03-.03c.14,1.17.86,1.93,1.91,2.45-.65-.81-1.29-1.61-1.94-2.42ZM580.46,287.03c-.2-.09-.32-.52-.62-.13.21.03.43.06.64.09,1.43.85,2.98,1.02,5.08.75-2.01-.38-3.52-.81-5.11-.71ZM489.56,83.4c-1.63.11-1.37,1.07-1.13,2.29.9-.71,1.14-1.46,1.1-2.32l.03.03ZM629.9,292.18c-1.04,1.54-1.45,3.33-1.9,5.09l-.05.07.07-.08c1.11-1.53,1.77-3.21,1.86-5.11.11-.18.27-.35.31-.54.04-.18-.14-.23-.2-.07-.07.2-.06.43-.08.64ZM530.11,341.11c-.62.58-1.24,1.15-1.84,1.74-.39.38-.47.91-.02,1.21.67.45.67-.3.83-.64.37-.76.69-1.55,1.03-2.33l.05-.06-.05.07ZM578.15,163.06c-.07-.02-.13-.04-.2-.06.08.01.15.02.23.03.96,1.32,2.4,1.81,3.82,2.34-1.02-1.23-2.34-1.93-3.85-2.31ZM491.87,102.98c-.02-.07-.03-.15-.07-.21-.03-.04-.09-.07-.13-.1.08.1.16.19.23.29.12,2.22,1.27,3.72,3.24,4.65-1.35-1.36-2.24-3.04-3.28-4.62ZM628.96,269.29l-.04.04c.14-1.93-.66-3.57-1.54-5.19.53,1.72.29,3.68,1.58,5.15ZM144.56,92.2c1.93-2.39,3.05-5.31,5.13-7.6-2.23,2.2-4.47,4.39-5.1,7.63-.07.04-.14.06-.19.11-.04.04-.04.11-.06.16l.22-.3ZM41.98,163.57c-.09-.2.21-.56-.26-.59.1.19.19.38.29.57.97,4.18,3.18,7.94,4.05,12.15-.72-4.26-1.55-8.48-4.08-12.12ZM238.29,49.82c-.91-.52-1.86-.86-3.53-.6,1.51.67,2.55.52,3.55.57,5.21,1.6,10.42,1.92,15.64.15-1.22.04-2.44.19-3.65.41-4.05.74-8.01-.52-12.02-.52ZM602.34,273.08c-.1-.2.22-.56-.24-.62.09.2.18.4.27.6.6,5.25-.36,9.89-5.11,13.05-.61,0-1.18.08-1.61.69.7.04,1.21-.2,1.59-.71,5.66-1.75,7.73-7.02,5.1-13ZM235,27.43c6.03-.18,12.08.88,18.08-.07,3.32-.52,6.34.88,9.53,1.08.42.03.73.25.89.64.38.93,1.17,1.11,2.06,1.22.76.09,1.75.19,2.07.88.73,1.63,2.06,1.32,3.32,1.27,1.55-.06,3.09-.22,4.64-.29,1.03-.05,1.29-.39,1.03-1.46-.78-3.24-1.35-3.77-4.72-3.86-9.99-.27-19.98-.06-29.96-.48-2.28-.1-4.85-.71-6.91,1.11-.92-.04-1.86-.15-3.06.94,1.44-.21,2.5.31,3.03-.98ZM229.92,29.78c-.45.8-1.38.57-2.03.93-.33.18-.84.46-.41.83,1.28,1.12,1.73,3.37,4.21,2.92,1.2-.22,2.48.01,3.71-.04,12.55-.5,25.11.26,37.66.08,1.74-.02,3.48,0,5.22,0,0-.34.02-.68.02-1.02-3.77-.94-7.67-.06-11.49-.14-.43-.64,1.01-1.57.06-1.8-1.91-.46-3.31-1.98-5.01-2.43-3.08-.81-6.26-1.3-9.57-.9-3.53.42-7.14.58-10.67-.03-3.65-.64-7.06,1.14-10.66.85-.33-.03-.71.52-1.07.8-.25-1.15-1.02-.89-1.8-.7-4.35,1.1-8.78.79-13.19.67-.92-.03-1.92-.08-2.4-1.09-.56-1.2-1.59-1.31-2.73-1.32-9.38-.08-18.77-.2-28.15-.24-3.41-.02-3.6.27-3.39,3.54.02.38-.01.78-.06,1.16-.18,1.45.35,2.24,1.91,2.15,3.57-.21,7.12.36,10.68.38,11.24.06,22.48.06,33.73.07.69,0,1.42.03,2.07-.15,1.06-.3,1.73-.84.49-1.83-1.54-1.22-.78-1.96.6-2.4.72-.23,1.52-.19,2.29-.27ZM271.87,204.55c-9.61.81-19.23.46-28.85.39-14.13-.09-28.26.02-42.39.15-13.43.12-26.86-.31-40.3-.49-2.63-.04-2.67.04-2.47,2.55.1,1.24.16,2.48.24,3.72.24,3.95.73,4.49,4.68,4.83,11.46.97,22.96.2,34.43.94,10.46.68,20.96.04,31.43.39,11.57.39,23.12-.18,34.68-.44,13.27-.3,26.55.26,39.81.63,3.06.09,6.12.01,9.18.01.05-.28.1-.57.15-.85-2.14-1.42-4.79-1.76-7.07-2.89-.9-.45-1.99-.76-3.12-.77-5.28-.05-10.56-.27-15.83-.26-3.05.01-5.93-.15-8.41-2.25-2.14-1.82-4.86-3.01-6.2-5.7,1.46,1.01,3.04,1.88,4.35,3.05,2.91,2.6,5.94,4.35,10.13,4.1,5.26-.32,10.55-.08,15.83-.08-1.74-.14-3.14-.78-4.09-2.38-.43-.73-1.42-1.06-2.28-.93-1.22.18-1.69-.49-2.04-1.43-.67-1.79-2-2.49-3.84-2.29-.73.08-1.46.16-1.72-.72-.88-2.97-3.81-4-5.81-5.81-1.25-1.13-2.48-2.21-3.7-3.37-1.63-1.55-2.25-3.81-3.61-4.95-2.21-1.87-1.71-5.73-5.15-6.38-.16-.03-.35-.54-.33-.81.22-3.21-2.68-4.89-3.66-7.51-.09-.24-.5-.59-1.11-.28.43,7.36.87,14.78,1.3,22.2.05.8.55,1.37.92,2.04,1.23,2.22,3.71,3.31,4.85,5.58ZM294.7,34.89c.12.7-.31,1.19-.7,1.65-2.39,2.85-4.73,5.75-7.24,8.49-3.12,3.39-5.68,6.95-5.55,11.84.02.61-.23,1.22-.33,1.83-.59,3.41-.96,3.02,2.64,3.12,1.32.04,2.64.05,3.95.19,6.6.71,13.18-.15,19.77-.18.75,0,1.53-.27,2.25-.54,8.62-3.35,17.55-5.18,26.8-5.03,9.78.16,19.57.49,28.72,4.64,1.1.5,2.23.53,3.41.53,6.83.02,13.66.09,20.49.13,6.22.04,4.92.06,3.93-4.76-.53-2.55-.94-5.29-2.58-7.39-3.57-4.59-7.4-8.97-11.03-13.51-2.13-2.66-4.64-3.94-8.18-3.9-10.63.14-21.27-.06-31.9-.07-13.11-.01-26.24.09-39.35.13-1.36,0-2.62.21-3.73,1.01.09-1.09.89-1.4,1.77-1.5,1.23-.15,2.47-.27,3.71-.28,18.1-.04,36.19-.06,54.29-.09,5.59,0,11.18-.03,16.78-.04,2,0,3.63.53,5.15,2.09,3.14,3.24,5.96,6.74,8.82,10.2,2.83,3.44,6.01,6.71,6.69,11.45.25,1.76.78,3.48,1.17,5.22.16.7.24,1.51,1.25,1.22.87-.25.57-1.02.44-1.57-.71-3.02-1.47-6.03-2.2-9.04-.21-.85-.61-1.57-1.16-2.25-4.74-5.95-9.63-11.76-14.59-17.53-.67-.78-1.35-1.22-2.36-1.21-5.51.05-11.01-.57-16.53-.37-16.3.59-32.6.04-48.9.09-3.81.01-7.59-.44-11.39-.47-1.64-.01-2.74.7-3.68,2.01-3.91,5.51-8.17,10.75-12.66,15.8-.91,1.03-2.04,1.97-2.39,3.38-.88,3.46-1.12,7.05-2.2,10.47-.13.41-.2.99.43,1.14.75.17.94-.44,1.04-.96.25-1.29.57-2.59.62-3.9.21-5.08,2.38-9.07,6.15-12.49,3.13-2.84,5.25-6.65,8.39-9.54ZM564.12,270.67c1.84.99,2,2.55,1.58,4.39-.27,1.21-.38,2.45-.53,3.68-.12.99.03,1.82,1.16,2.23,1.89.7,3.72,1.53,5.61,2.22,5.48,2,11.2,2.96,16.96,3.75,6.52.89,12.45-4.33,12.56-10.87.13-7.67-4.68-12.33-9.84-16.83-1.1-.96-2.34-2.05-3.69-2.38-4.69-1.15-8.36-4.25-12.6-6.25-2.58-1.22-5.04-2.85-6.39-5.57-2.59-5.19-2.74-10.68-.95-16.01,2.62-7.78,7.36-14.27,13.4-19.83,4.13-3.81,7.86-8.05,10.67-12.88,5.94-10.23.67-23.04-8.93-29.02-2.17-1.35-4.5-2.44-6.66-3.83-2.92-1.89-6.15-2.6-9.58-2.16-5.09.64-10.2.97-15.33,1.17-7.98.32-15.87-.18-23.37-3.18-4.12-1.65-7.99-3.82-10.89-7.35-3.37-4.1-5.28-8.95-6.72-13.93-1.3-4.51-3.3-8.67-5.46-12.76-.69-1.31-.53-1.49.65-2.12,1.41-.75,3.35-1.37,3.8-2.87.35-1.18-1.38-2.25-1.95-3.52-.71-1.55-1.53-3.06-2.21-4.62-.59-1.35-1.06-2.75-1.61-4.12-.16-.4-.24-1-.88-.85-.46.11-.39.61-.41.98-.02.46.01.93,0,1.4-.07,7.53.21,15.05.53,22.57.46,10.7.86,21.41.89,32.12.03,10.56,1.15,21.1.63,31.66-.13,2.72-.3,2.97-3.04,2.7-1.83-.18-2.15.5-2.29,2.18-.29,3.49-.11,6.99-.31,10.47-.21,3.62-1.83,5.38-5.4,5.35-8.46-.07-16.88.96-25.34.99-27.65.11-55.29,1.21-82.94-.03-7.22-.32-14.45-.02-21.67-.03-3.75,0-7.35.41-10.99,1.3-3.98.96-8,1.55-12.2,1.46-2.94-.07-6.13-1.65-9,.49-.17.13-.64.01-.87-.13-1.27-.79-2.6-.52-3.99-.55-2.25-.06-5.02.1-6.68-.74-2.94-1.48-5.71-1.21-8.57-1.14-11.27.25-22.52-.53-33.78-.66-12.2-.14-24.38.77-36.56.55-17.78-.32-35.56-.13-53.34-.83-9.82-.39-19.69-.72-29.54-.36-3.73.14-6.58-1.71-7-4.48-.32-2.06-.63-4.13-.51-6.25.23-3.95.52-7.91.47-11.86-.1-9.23.39-18.45-.35-27.68-.31-3.85.24-7.75.27-11.64.13-14.97.36-29.94-.38-44.91-.12-2.49.3-5.02-3.01-5.8-.47-.11-.83-.68-1.26-1.02-.63-.5-1.32-.73-2.17-.58-5.2.93-10.42,1.72-15.59,2.77-5.56,1.13-5.59,1.25-4.13,6.72.29,1.1.18,1.39-.92,1.4-1.78,0-3.57.1-5.35.13-3.65.06-6.56,1.33-8.6,4.57-1.74,2.77-2.73,5.72-3.16,8.91-.81,6.05-3.03,11.31-7.94,15.28-3.21,2.6-6.64,4.85-10.1,7.07-4.24,2.73-8.93,3.77-13.93,3.95-3.12.12-6.16-.64-9.29-.35-3.69.35-6.02,3.11-5.16,6.76.78,3.27,2.17,6.31,4.48,8.84,3.51,3.83,6.5,7.92,6.65,13.41,0,.15.08.3.12.45,1.31,5,1.71,10.08,1.17,15.22-.4,3.83-1.32,7.46-3.71,10.62-3.26,4.32-7.45,7.66-11.42,11.26-3.26,2.95-7.35,4.65-10.71,7.4-2.64,2.16-5.61,3.4-8.81,4.34-4.24,1.24-5.64,3.42-4.89,7.8.55,3.2,2.08,5.96,4.05,8.54,5.66,7.41,13.67,11.42,21.98,14.71,9.05,3.58,18.59,5.46,28.32,6.19,1.43.11,2.21-.31,2.15-1.91-.1-2.48-.07-4.97-.15-7.45-.05-1.46.3-2.37,2.05-2.24,3.99.29,7.9-.57,11.8-1.13,9.41-1.35,18.29-4.19,25.59-10.69.97-.86,1.82-2.43,2.82-2.52.97-.09,2.06,1.34,3.11,2.07.38.26.82.43,1.23.65,7.46,4.02,15.51,5.81,23.92,6.11,8.85.32,17.74.42,26.45,2.09,14.08,2.7,28.31,3.76,42.57,4.42,13.5.63,27.01.95,40.52,1.29,4.96.13,9.94.27,14.91-.21,11.36-1.1,22.7-2.5,34.15-2.12,2.17.07,4.35-.08,6.52-.11,7.29-.1,14.54-1.01,21.84-.87,8.78.17,17.58-.22,26.33.29,12.25.72,24.52,1.42,36.75,1.45,23.45.05,46.89,1.12,70.35.76,8.31-.13,16.63-.13,24.9-.96,6.7-.67,13.49-1.19,19.62-4.49.54-.29,1.17-.44,1.77-.56,2.66-.54,3.47-.02,4.3,2.62.41,1.3,1.37,2.24,2.32,3.16.95.92,1.89,1.85,2.89,2.71,4.48,3.84,9.29,7.01,15.44,7.46,3.72.27,7.42.68,11.13,1.06.7.07,1.69-.13,1.62,1.12-1.34.6-2.54-.32-3.82-.41-3.79-.25-7.59-.55-11.34-1.15-7.27-1.16-12.97-5.29-18.07-10.29-1.29-1.26-1.78-1.03-2.32.46-.74,2.04-1.53,4.06-2.31,6.09-3.02,7.81-4.77,16.02-5.17,24.25-.56,11.67-.8,23.43,1.17,35.05.91,5.39,1.05,10.94,3.88,15.91.99,1.73,1.41,1.68,2.67.32,6.11-6.57,12.76-12.42,21.4-15.58,2.16-.79,4.36-1.51,6.51-2.34,1.32-.5,2.76-1.62,4.14-1.39,2.14.35,1.79-.87,1.64-1.99-.37-2.63-.44-5.27-.31-7.9.54-11.08,1.4-22.14,1.68-33.24.07-2.61-.92-5.26.23-7.83ZM89.97,287.19c.27-4.44-.45-9.93-.55-15.44-.02-1.11-.12-2-1.63-1.88-4.7.38-9.26-.75-13.86-1.43-5.54-.81-11.1-1.79-16.18-4.13-6.19-2.85-11.8-6.73-17.34-10.74-4.58-3.31-7.06-7.7-8.07-12.9-1.21-6.29-.72-8.29,5.58-10.64,2.43-.91,4.69-2.04,6.74-3.6,3.28-2.5,7.21-4.01,10.38-6.6,3.72-3.04,7.12-6.47,10.24-10.16,3.55-4.19,5.79-8.83,6.18-14.45.28-4.12-.34-8.07-1.23-11.98-1.26-5.53-3.81-10.56-7.69-14.68-2.6-2.77-3.93-5.86-3.73-9.44.37-6.63,2.64-9.02,8.8-7.5,3.43.84,6.95,1.07,10.4.36,9.86-2.01,17.53-7.5,23.69-15.3,1.23-1.56,2.11-3.2,2.4-5.2.51-3.54,1.43-7,2.68-10.34,2.27-6.04,6.02-9.35,12.34-8.87.85.06,1.71.02,2.56.06,1.03.06,1.67-.19,1.43-1.43-.12-.6-.08-1.24-.13-1.86-.09-1.37-.33-2.3-2.22-2.05-2.08.27-3.35-.96-3.71-3.03-.4-2.3.35-4.2,2.38-5.36,1.04-.6,1.25-1.18.82-2.22-.33-.78-.53-1.62-.77-2.44-.26-.89-.79-1.15-1.74-1.09-7.58.52-13.49,3.69-17.24,10.51-1.46,2.66-2.56,5.48-3.89,8.19-2,4.12-4.11,8.32-8.05,10.92-5.05,3.34-10.8,4.14-16.76,3.57-1.23-.12-2.59-.16-3.57-.94-2.17-1.74-4.77-2.26-7.35-2.7-6.21-1.05-11.79,0-16.47,4.76-3.22,3.27-4.93,7.27-6.78,11.29-1.89,4.13-1.96,8.16-.22,12.38,1.96,4.74,4.37,9.26,6.46,13.93,2.74,6.13,4.22,12.48,3.36,19.24-1.09,8.66-5.2,15.1-13.45,18.64-5.34,2.29-10.95,3.4-16.62,4.3-3.55.56-7.14,1.08-9.79,3.79-5.63,5.74-7,12.96-5.96,20.48.79,5.72,3,11.2,4.83,16.71.29.87.77,1.72,1.36,2.42,1.27,1.51,2.13,3.23,2.95,4.99,1.36,2.97,3.14,5.69,4.99,8.38,6.53,9.47,14.81,16.84,25.32,21.64,6.71,3.06,13.45,6.08,20.03,9.36,8.65,4.32,17.5,6.06,27.04,4.9,1.62-.2,2.1-.76,2.05-2.31-.09-3.03-.03-6.06-.03-10.17ZM565.19,295.2c.15,0,.31,0,.46,0,0,3.49.15,7-.06,10.48-.12,1.98.66,3.08,2.31,3.75,3.09,1.27,6.15,2.6,9.48,3.17,6.11,1.05,12.23,1.92,18.42,2.42,8.28.67,15.67-1.35,22.06-6.74,1.42-1.2,2.77-2.49,4.1-3.8,5.58-5.51,7.46-12.54,7.89-20.03.43-7.59-2.04-14.72-4.13-21.85-1.5-5.11-4.91-8.94-9.48-11.61-4.35-2.55-8.89-4.78-13.23-7.34-2.24-1.32-4.59-2.6-6.05-4.97-3.66-5.94-2.87-14.17,2.14-19.63,3.09-3.37,6.35-6.59,9.62-9.79,3.48-3.42,6.04-7.45,8.18-11.8,1.65-3.35,2.25-6.82,2.34-10.56.17-6.71-2.11-12.77-4.17-18.97-2.38-7.18-7.35-12.59-12.13-18.02-4.53-5.14-10.22-9.05-16.83-11.36-4.46-1.56-8.8-3.76-13.53-4.13-6.38-.5-12.58.46-18.68,2.91-6.01,2.42-12.06,1.25-17.59-2.09-3.63-2.19-5.79-5.8-8.08-9.18-1.29-1.9-3.15-3.51-3.64-5.9-.41-2.04-1.84-3.58-2.57-5.45-.14-.35-.34-.66-.84-.67-1.57-.03-4.01,2.55-3.84,4.11.32,2.89-1.34,4.75-3.91,3.7-2.87-1.18-4.49.43-6.47,1.65-.83.52-.94,1.06-.43,1.91,3.88,6.58,6.4,13.76,9.11,20.85.56,1.47,1.36,2.77,2.33,4,4.5,5.74,10.59,8.75,17.61,9.98,8.71,1.52,17.46,1.26,26.2.18,9.92-1.22,18.95.19,25.65,8.54,3.38,4.21,7.25,8.08,7.95,13.91.72,5.94.17,11.72-3.51,16.4-5.61,7.13-11.79,13.82-17.79,20.63-1.85,2.1-2.95,4.53-3.75,7.14-.27.89-.36,1.85-.75,2.68-2.25,4.76-1.87,9.41,1.03,13.66,3.31,4.86,7.99,8.26,13.44,10.31,5.69,2.14,10.23,5.54,14.21,10.12,3.47,3.98,5.21,8.56,6.38,13.5.16.68.25,1.37.03,2.07-1.82,5.72-6.71,9.2-12.86,9.17-1.01,0-2.01-.17-3.01.05-4.12.91-8,.19-11.78-1.57-3.31-1.54-6.68-2.93-10-4.45-1.38-.63-1.91-.47-1.86,1.21.1,3.8.03,7.6.03,11.41ZM242.84,198.87c6.76,0,13.51-.04,20.27.02,1.76.02,2.36-.57,2.06-2.34-.93-5.37-1.33-10.79-1.28-16.23.02-2.23-.78-2.76-2.81-2.75-7.92.04-15.85-.08-23.77-.03-1.34,0-3.43-1.07-3.72,1.65-.01.14-.69.28-1.05.29-3.88.01-7.77.09-11.65-.05-2.82-.1-4.06-1.45-4.1-4.26-.02-1.4-.38-2.25-1.86-2.37-2.67-.21-3.74-1.87-3.94-4.33-.46-5.74-.43-11.48.21-17.2.21-1.85,1.24-3.22,3.21-3.48,1.84-.24,2.38-1.15,2.34-2.97-.1-5.51-.1-11.03,0-16.54.16-8-.56-15.98-.69-23.97-.03-1.77-.74-2.39-2.54-2.37-14.83.21-29.65-.28-44.48,0-2.76.05-5.2.4-7.11,2.58-.57.65-1.37,1.15-2.2,1.24-2.13.24-2.27,1.58-2.21,3.31.24,6.74.38,13.47.28,20.22-.19,12.79-.24,25.59-.08,38.38.11,9.08.41,18.16.35,27.25-.03,3.8.2,3.66,3.92,4.01,6.21.58,12.42.25,18.63.28,20.73.1,41.47.64,62.21-.33ZM412.24,178.9c0-.18,0-.35,0-.53,3.63,0,7.27.03,10.9-.01,1.21-.01,2.03-.48,1.99-1.97-.04-1.51-.99-1.58-2.04-1.55-3.57.09-7.14.23-10.71.31-1.48.03-2.02.73-1.99,2.2.07,3.18.02,6.36.01,9.55,0,3.64.27,7.31-.9,10.86-.5,1.54.71,1.25,1.45,1.23,6.6-.15,13.2.25,19.8.35,12.35.19,24.69-.01,37.03-.5,1.82-.07,2.17-.85,2.12-2.45-.31-10.24-.57-20.49-.8-30.74-.23-10.17-1.22-20.31-1.02-30.49.19-9.54.66-19.08.43-28.63-.05-2.01-.46-2.65-2.57-2.64-15.53.06-31.07,0-46.6-.02-.83,0-1.99-.31-2.41.39-.55.91.71,1.34,1.14,2.01.29.45.61.9.8,1.4.31.84.87,1.15,1.75,1.26,3.45.43,3.65.66,3.78,4.17.16,4.27.26,8.54.39,12.81.07,2.21-.09,4.29-.75,6.53-.84,2.85-2.37,3.93-4.88,3.93-2.27,0-3.07,1.02-2.93,3.05.21,3.2-1.18,6.34-.34,9.57.13.49-.3.86-.57,1.23-.9,1.23-.66,1.72.92,1.74,3.41.06,6.95-1.22,10.17,1,.31.21.91,0,1.37-.02,7.07-.29,14.12.56,21.18.42.53-.01,1.07.19,1.6.28,1.63.27,2.41,1.11,2.29,2.87-.15,2.09-.24,4.2-.1,6.28.29,4.35.17,8.69-.03,13.04-.08,1.74-.6,3.05-2.67,3.03-4.89-.05-9.78.17-14.68-.18-3.23-.23-6.57-.7-9.71-.15-4.52.78-8.94.18-13.4.41ZM91.37,261.32c.6,4.57.85,9.04.97,13.53.29,11.5-.58,22.98-.41,34.47.01,1-.01,1-1.11,1.22-.35.07-.14.33-.16.48-.2,1.55-.08,2.69,1.8,3.4,7.52,2.85,14.3,7.12,20.87,11.7,5.03,3.51,9.99,7.12,14.95,10.73,1.38,1.01,2.06.78,2.61-.87.66-1.98,1.48-3.92,2.4-5.79,5.49-11.12,7.91-22.97,8.39-35.27.44-11.16-1.24-22.1-3.5-32.99-.86-4.15-2.1-8.08-4.32-11.71-.68-1.11-1.38-2.31-1.15-3.71.15-.89-.15-1.58-.85-2-.85-.5-1.22.41-1.68.82-3.21,2.85-6.65,5.3-10.6,7.05-7.7,3.43-15.88,4.71-24.17,5.63-1.58.18-3.66-.82-4.63.64-.88,1.32-.03,3.26-.13,5.07.5-.8-.1-1.69.74-2.42ZM337.69,213.83c6.32.06,11.98-.79,17.71-2.19,9.92-2.42,18.69-6.95,26.95-12.71,7.04-4.91,11.47-12.05,16.02-19.06,2.76-4.25,4.42-9.05,6.39-13.68,2.08-4.87,3.43-9.89,3.7-15.27.29-5.73-.63-11.3-1.29-16.91-.6-5.08-1.09-10.18-2.81-15.06-2.9-8.19-7.7-15.18-13.46-21.59-3.11-3.46-5.95-7.22-9.39-10.32-5.99-5.4-13.19-8.99-20.49-12.3-6.61-3-13.56-4.4-20.85-3.95-1.94.12-3.88.18-5.82.16-10.17-.1-19.56,3.17-28.16,7.98-7.91,4.42-15.91,9-22.14,15.99-3.46,3.88-7.06,7.66-9.61,12.15-3.21,5.66-5.49,11.76-7.21,18.08-1.47,5.39-3.15,10.7-2.78,16.39.58,9.02,2.5,17.81,4.96,26.45,2.46,8.59,7.94,15.5,13.62,22.22,5.92,7,13.58,11.76,21.2,16.53,5.02,3.14,10.57,5.36,16.5,5.99,5.78.61,11.57,1.35,16.93,1.11ZM244.41,88.33c5.64-.32,13.32-.35,21.01-.04.67.03,1.39.04,1.46-.75.26-2.84,1.48-5.84.42-8.49-1.06-2.65-.57-4.73.77-6.76.71-1.08,1.15-2.13,1.33-3.37.42-2.85.61-5.88,4.42-6.41.27-.04.6-.23.52-.64-.08-.38-.42-.42-.71-.48-.38-.08-.77-.15-1.15-.16-8.38-.18-16.77-.68-25.14-.42-5.74.18-11.47.33-17.2.29-14.36-.09-28.72-.25-43.09.09-8.04.19-16.11-.89-24.17.16-.53.07-1.08-.04-1.63-.08-3.47-.29-5.42,1.52-4.61,4.92.76,3.18.41,6.32.6,9.47.03.58-.45,1.57.7,1.59.91.02,1.91-.05,2-1.39.05-.69.25-1.37.45-2.04,1.24-4.09,3.98-5.67,7.81-4.43.7.23,1.2.11,1.73-.23.69-.45,1.29-.23,1.96.08,1.67.78,2.66,1.9,2.82,3.88.35,4.28-.36,8.53-.12,12.8.15,2.68.05,2.69,2.81,2.59,14.67-.54,29.34.3,44.01-.35,6.95-.3,13.96.31,22.99.15ZM472.32,185.18h.14c0,3.72.07,7.45-.03,11.18-.04,1.73.58,2.34,2.29,2.29,4.27-.14,8.54-.15,12.81-.22,2.95-.05,5.9-.07,8.85-.19,1.88-.08,2.91-.92,2.89-3.07-.03-3.73-.3-7.45-.59-11.16-.54-6.99.16-13.97,0-20.95-.39-17.18-.61-34.37-.81-51.56-.02-1.73-.03-2.84-2.22-2.5-.86.14-1.59-.56-2.22-1.14-1.3-1.17-2.19-2.61-2.61-4.32-.25-1.02-.74-1.63-1.94-1.5-5.48.57-10.92,1.51-16.44,1.72-1.07.04-1.42.56-1.45,1.63-.29,10.08-1.3,20.15-.86,30.25.71,16.52,1.46,33.03,2.19,49.55ZM336.66,3.92c0-.18,0-.36,0-.54-5.59,0-11.18.08-16.77-.04-1.89-.04-3.31.5-4.5,1.89-5.43,6.36-10.87,12.72-16.3,19.08-5.09,5.95-10.23,11.86-15.23,17.89-1.73,2.08-4.14,3.76-5.09,6.29-1.4,3.76-2.41,7.68-3.05,11.67-.09.58-.59,1.55.44,1.74.92.17,1.04-.75,1.15-1.44.52-3.2,1.68-6.29,1.68-9.59,0-.73.38-1.34.85-1.87,5.51-6.11,10.56-12.61,15.48-19.19.82-1.1,1.83-1.58,3.19-1.52,8.06.38,16.15-.1,24.18.27,11.57.52,23.11,0,34.66.07,6.13.03,12.26.36,18.38.16,1.21-.04,2.03.44,2.81,1.31,5.31,5.97,10.35,12.17,15.39,18.36.65.8.94,1.73,1.14,2.75.62,3.2,1.33,6.38,2.03,9.55.09.4.09,1.07.74.95.62-.11.48-.7.39-1.15-.71-3.65-1.11-7.37-2.4-10.89-.24-.64-.54-1.31-.98-1.83-5.87-6.92-11.73-13.85-17.66-20.72-5.72-6.63-11.49-13.21-17.29-19.78-1.43-1.62-2.97-3.37-5.32-3.42-5.97-.11-11.95-.04-17.93-.04ZM267.19,105.92c.95-.13,1.35-.48,1.51-.87.8-1.96,1.52-3.79,3.18-5.45,1.05-1.06.97-3.37,3.2-3.72.29-2.75,2.5-4.14,4.17-5.93.24-.26.3-.71.37-1.09.13-.78.47-1.27,1.33-1.34,1.43-.12,2.26-.98,2.5-2.34.17-.94.66-1.34,1.58-1.33,1.56.02,2.4-.85,2.83-2.28.19-.64.32-1.57,1.28-1.32,2.22.6,2.81-1.04,3.6-2.45.32-.57.52-1.7,1.31-1.33,2.49,1.16,3.13-.63,3.99-2.21.33-.61.67-1.43,1.55-.86,1.69,1.09,2.31-.04,3.04-1.24.43-.69.77-2,2.02-.85,1.27,1.18,2.05.52,2.73-.67.34-.6.72-1.67,1.12-1.69,2.13-.09,4.07-1.52,6.06-1.25,1.47.2,2.5.27,3.53-.81.52-.55,1.09-1.31,1.96-.63,1.64,1.28,2.64.41,3.67-.88.48-.61,1.24-1.57,2.03-.47,1.18,1.67,2.2.87,3.28.02.69-.54,1.39-1.15,2.26-.43,1.54,1.28,2.9.7,4.17-.37.98-.83,1.88-.79,2.61.17.79,1.04,1.56.85,2.36.18.92-.77,1.72-.96,2.55.11,1.02,1.33,2.27,1.28,3.46.33.91-.73,1.43-.5,2.08.31,1.03,1.29,2.23,1.58,3.58.4,1.27-1.11,2.14-.47,2.71.76.68,1.45,1.61,1.72,2.99.94.94-.54,1.87-.71,2.65.39,1.36,1.91,1.9,2.02,3.66.32,1.23-1.18,1.68-1.02,2.09.55.78,2.98.98,3.04,3.68,1.52.27-.15.54-.31.8-.47.87-.53,1.47-.58,1.42.72-.02.46.03.93.06,1.4.15,2.42.44,2.67,2.64,1.71,1.58-.69,2.46-.42,2.45,1.35-.01,1.86.6,2.11,2.23,1.37,1.76-.79,2.36-.31,2.52,1.62.21,2.56.35,2.67,2.75,1.96,1.2-.35,2.17-.41,2.42,1.16.49,3.04.49,3.09,3.66,3.3,1.36.09,2.13.63,1.83,2.01-.41,1.9.04,2.66,2.1,2.11,1.61-.43,1.89.55,1.64,1.86-.09.45-.32.88-.39,1.33-.18,1-.07,1.64,1.3,1.39,2.47-.44,2.79-.16,2.36,2.3-.29,1.7.28,2.4,1.88,2.76,2.4.54,2.44.64,1.3,2.79-.58,1.09-.79,1.76.82,1.61,1.46-.13,2.05.46,1.63,1.92-.27.95-.09,1.84.37,2.69.26.49.58,1.03,1.22.82.59-.19.33-.78.28-1.21-.52-4.31-.94-8.63-1.58-12.93-1.39-9.36-2.53-18.75-3.78-28.13-.26-1.94-1.21-2.6-3.24-2.11-1.84.44-.59,1.73-.57,2.63.01.76.3,1.51.46,2.27.51,2.35.37,2.52-2.05,2.54-4.11.02-8.24-.09-12.34.14-1.49.08-2.63-.15-3.89-.88-5.17-2.99-10.44-5.81-15.89-8.23-5.87-2.61-12.18-3.54-18.53-4.11-2.7-.24-5.41-.58-8.12-.59-14.65-.05-28.12,4.35-40.83,11.28-2.9,1.58-5.6,2.97-9.11,2.62-3.53-.35-7.13-.03-10.7-.02-1.68,0-2.38-.68-1.36-2.28.88-1.37,1.01-2.91,1.21-4.44.09-.68.03-1.19-.87-1.29-1.88-.22-3.14.59-3.53,2.46-.65,3.11-1.44,6.2-1.87,9.34-.88,6.45-1.59,12.92-2.3,19.39-.42,3.83-.69,7.67-1.04,11.65ZM399.42,61.27c.92.85,1.82,1.06,2.71,1.12,2.01.14,2.92,1.34,2.97,3.16.19,6.61,1.93,13.03,2.48,19.59.29,3.49.48,3.68,4.11,3.74,4.42.06,8.86-.08,13.27.21,6.83.44,13.66.28,20.47.08,7.05-.2,14.13-.06,21.18-.67,1.78-.15,2.39-.49,2.37-2.35-.08-7.68-.09-15.37.05-23.05.04-2.16-.67-2.89-2.75-2.89-4.11,0-8.23-.12-12.33.33-6.13.68-12.25-.25-18.38-.22-11.94.06-23.88-.24-36.14.94ZM253.51,154.25c0-4.42-.01-8.83-.21-13.25-.35-7.82-.49-15.66-.75-23.49-.05-1.55-.32-3.06-.75-4.57-.58-2.05-1.87-2.9-3.9-2.94-5.2-.1-10.39-.19-15.59-.37-1.4-.05-1.91.34-1.87,1.82.08,2.79.25,5.57.15,8.37-.23,6.59-.39,13.17.1,19.76.6,8.04,1.24,16.08,1.13,24.16q-.05,3.68,3.74,3.67c4.89-.02,9.77-.1,14.66-.07,2.88.02,3.24-.2,3.29-3.08.05-3.33.01-6.67.01-10ZM217.53,88.77v.54c-3.18,0-6.37-.09-9.55.02-12.34.41-24.69-.88-37.03.25-1.59.15-2.46.46-2.52,2.21-.09,2.59-.84,5.07-2,7.36-.86,1.7-.44,2.2,1.37,2.06,6.26-.47,12.52.47,18.82-.11,6.41-.59,12.86.56,19.31.02,6.29-.53,12.56.4,18.85.44,7.54.05,15.06-.57,22.59-.48,5.28.06,10.55.3,15.83.52,1.79.08,2.44-.65,2.52-2.42.11-2.4.45-4.79.77-7.17.36-2.67.19-2.91-2.59-2.96-15.46-.29-30.91.84-46.37-.28ZM167.72,49.73c-2.18-.31-4.33.17-6.5.19-2.1.02-2.94.79-3,2.97-.05,1.7.21,3.41.16,5.11-.05,1.89.7,2.45,2.6,2.54,4.14.21,8.2-.6,12.31-.67,4.44-.08,8.81.91,13.24.64,3.02-.19,6.04-.38,9.07-.45,17-.37,34,.54,51.01.08,8.46-.23,16.92-.34,25.38.26,2.92.21,2.89.16,3.52-2.82.4-1.89.87-3.78,1.4-5.64.29-1.03.24-1.61-1.04-1.66-7.6-.28-15.21-.85-22.71.96-2.6.63-5.22.86-7.86.53-5.13-.64-10.23-1.14-15.45-1.08-20.72.22-41.46.85-62.15-.96ZM362.56,216.54c2.24,0,4.48,0,6.71,0,9.47-.03,18.93.4,28.39.54,11.01.16,22.05.22,33.07.02,12.19-.23,24.38-.32,36.57-.51,3.01-.05,3.03-.1,2.93-3.19-.08-2.33-.34-4.65-.32-6.98.01-1.55-.41-2.08-2.06-2.2-8.16-.58-16.29,0-24.44.14-10.86.19-21.73-.04-32.59-.43-5.03-.18-8.93,1.07-12.04,5.21-2.34,3.12-5.42,5.25-9.77,4.36-1.27-.26-2.64.02-3.95-.05-4.24-.25-8.53.73-12.74-.52-.88-.26-1.49.4-1.84,1.12-.62,1.29-1.66,1.69-2.88,1.21-2.02-.8-3.52.27-5.04,1.3ZM226,178.78v-.2c1.63,0,3.26-.01,4.88,0,1.08.01,1.78-.28,1.73-1.57-.07-1.94-.05-3.88.32-5.8.09-.49,0-.99-.45-1.23-1.78-.95-1.63-2.66-1.73-4.27-.38-6.35-.26-12.73-.65-19.07-.72-11.4-.82-22.79-.65-34.19.03-2.05-.43-4.18,2.36-5.25,1.58-.61,1.07-2.68.87-4.03-.2-1.34-1.66-.72-2.57-.76-3.95-.16-7.91.31-11.86-.25-1.39-.2-1.65.43-1.59,1.76.4,9.14.91,18.27.79,27.44-.08,6.37-.81,12.82.99,19.12.3,1.05.02,2.33,1.94,2.05,1.36-.2,2.45.8,2.52,2.2.08,1.68.49,3.18,1.31,4.63.38.69.49,1.68.12,2.26-1.49,2.31-.75,4.8-.86,7.23-.12,2.42-1.75,3.68-4.07,3.16-.77-.17-1.25-.35-1.69.5-1.36,2.63.42,6.03,3.39,6.26,1.62.13,3.26.02,4.89.02ZM459.72,59.31c2.53,0,4.55-.08,6.57.02,3.53.17,3.53.22,4.11-3.21.1-.61.26-1.22.29-1.84.12-2.74-1.85-4.8-4.55-4.73-2.25.05-4.5.18-6.75.24-11.41.29-22.81-.59-34.22-.05-1.47.07-2.96.14-4.42-.01-7.51-.77-15.03-.14-22.54-.29-.96-.02-1.43.24-1.16,1.38.59,2.49,1.12,4.99,1.53,7.51.2,1.21.74,1.42,1.86,1.43,5.04.04,10.07-.11,15.11-.24,14.89-.41,29.79.61,44.16-.2ZM475.82,275.03c-.19.03-.37.06-.56.09-.53,7.09-1.14,14.18-1.55,21.28-.47,8.13-.76,16.28-1.12,24.42-.04.97-.38,2.25,1.25,2.14,1.31-.08,2.96.53,3.15-1.93.36-4.64,1-9.25,1.24-13.91.04-.81-.21-2.01.82-2.18,1.04-.17,1.45.96,1.81,1.81.21.5.41,1.01.56,1.53.94,3.28,1.76,6.6,2.81,9.84,1.71,5.3,2.36,5.63,7.89,5.38,1.51-.07,1.91-.67,2.07-2.09.45-4.01.48-8.07.97-12.06,1.32-10.96,1.88-21.95,1.9-32.97,0-.45.18-.94-.32-1.26-1.34-.85-4.49.6-4.67,2.17-.29,2.54-.5,5.09-.84,7.63-1.13,8.47-2.1,16.94-.91,25.49.03.23-.13.43-.7.37-3.77-12.16-10.63-23.23-13.8-35.77ZM255.25,139.82c-.29,9.01.37,16.92.42,24.84.03,5.26-.36,5.58-5.72,5.32-4.81-.23-9.63-.21-14.44-.38-1.81-.06-1.97.91-1.96,2.34.02,1.41.38,2.17,1.98,2.09,2.94-.15,5.89-.18,8.83-.24,4.58-.1,9.16-.17,13.74-.27,1.04-.02,2-.09,1.97-1.61-.12-6.13.41-12.28-.1-18.39-.4-4.74-.29-9.44-.09-14.17.15-3.61,1.64-7.41-.82-10.86-.43-.61,0-.98.5-1.3,3.4-2.19,1.93-6.28,3.53-9.18.08-.15-.15-.44-.14-.67,0-.38-.01-.8.15-1.12,1.88-3.89,1.56-8.16,2.14-12.26.16-1.12-.46-1.49-1.5-1.52-9.38-.32-18.76-1.03-28.15-.08-2.22.22-1.86,1.51-2.01,2.85-.18,1.62.69,1.88,2.07,1.96,4.73.28,9.47.4,14.21.44,3.07.03,4.65,1.6,4.9,4.69.75,9.53.35,19.08.48,27.54ZM416.4,102.79c2.64.41,4.95.15,7.19.16,14.12.12,28.24.04,42.35,0,2.66,0,2.88-.24,2.96-2.94.08-2.64.07-5.27.12-7.91.05-2.63-.11-2.78-2.7-2.7-13.73.46-27.45.78-41.19.46-2.72-.06-5.43-.08-8.15-.13-.81-.02-1.44.18-1.34,1.14.08.73-.03,1.82,1.05,1.77,2.53-.13,2.63,1.46,2.7,3.31.05,1.38.37,2.75.56,4.13.16,1.21-.26,1.96-1.59,2.02-.53.02-1.1-.09-1.97.69ZM185.13,307.17c0,1.42-.04,3.98,0,6.54.08,3.96-.88,4.31,4.11,3.77,2.33-.25,2.7-1.07,2.72-3.12.07-6.29-.23-12.57.32-18.86.72-8.35.87-16.75,2.06-25.06.21-1.42-.13-2.02-1.72-1.67-1.51.32-3.08.48-4.62.53-1.53.05-1.95.72-1.91,2.18.1,3.73.06,7.45.09,11.18q.03,4.11-3.95,4.52c-.39.04-.77.11-1.15.16-2.42.31-2.79.02-2.61-2.41.3-4.03.55-8.06.5-12.1-.03-2.61-.66-3.04-3.18-2.32-1.51.43-1.26,1.55-1.27,2.6-.16,10.94.42,21.9-.42,32.84-.27,3.48-.3,6.98-.54,10.47-.12,1.71.78,1.94,2.12,1.88,1.26-.06,2.34.1,2.43-1.86.31-6.97.85-13.93,1.29-20.9q.21-3.35,3.55-3.82c2.57-.36,3.17.26,2.98,2.91-.27,3.79-.48,7.59-.79,12.53ZM361.67,270.42l-.45-.1c-.22.4-.46.78-.66,1.19-3.73,7.32-7.09,14.83-11.15,21.98-.29.52-.36,1.37-1.1,1.33-.84-.05-.63-.96-.75-1.49-1.68-7.51-4.75-14.54-7.58-22.25-.8,10.69-1.57,20.87-2.32,31.04-.41,5.49-.49,11-1.22,16.47-.14,1.04-.19,1.83,1.23,1.89,1.28.05,2.15.08,2.25-1.69.33-5.81.85-11.6,1.32-17.4.26-3.24.47-6.49,1.31-9.65.14-.54.24-1.16.83-1.29.6-.13.99.4,1.25.88.65,1.23,1.39,2.44,1.86,3.74.82,2.28,1.48,4.63,2.33,7.37,1.36-3.26,2.49-6.13,3.75-8.95.42-.94.61-2.68,1.68-2.48,1.23.22.66,1.88.6,2.86-.49,7.67-.9,15.34-.72,23.03.12,5.05.14,4.97,5.01,5.07,1.86.04,2.33-.62,2.01-2.31-.57-2.98-.77-6.01-.72-9.04.19-10.32-.04-20.65.75-30.95.24-3.08.33-6.17.5-9.25ZM418.32,294.29c.79.75.78,1.39.93,1.98,2.02,8.29,4.44,16.45,7.42,24.45.33.9.65,1.96,1.88,1.12,1.04-.72,3.24-.52,2.46-2.86-2.64-7.96-6.35-15.48-9.27-23.33-1.21-3.25-1.39-3.19,1.96-4.44,5.49-2.07,8.43-6.28,8.35-12.14-.03-1.97-.68-3.75-2.01-5.31-3.14-3.69-7.14-3.73-11.31-2.64-3.61.94-5.39,3.63-5.24,7.32.05,1.32.09,2.64.07,3.96-.19,12.42.23,24.84-.34,37.25-.13,2.75-.03,2.61,3.33,2.8,2.3.13,2.05-1.22,2.02-2.64-.15-6.59-.3-13.18-.41-19.77-.03-1.83-.25-3.67.16-5.76ZM405.31,305.36c.26-2.04-.03-4.82-.24-7.61-.06-.77.03-1.73-1.15-1.59-3.18.39-6.36.15-9.53.23-2.11.06-1.55,2.16-1.7,3.47-.17,1.5,1.08,1.21,1.96,1.15,1.47-.11,2.93-.3,4.39-.46.73-.08,1.57-.14,1.57.85.03,4.02.56,8.09-.82,12-.41,1.16-1.2,2.03-2.53,2.1-2.42.13-4.63-.38-6.34-2.29-2.36-2.64-3.8-5.75-3.93-9.26-.24-6.82,1.14-13.43,3.34-19.85.72-2.1,2.12-3.76,4.32-4.62,2.88-1.13,4-.61,4.56,2.42.19,1,.47,1.38,1.49,1.11.59-.16,1.22-.22,1.84-.27,1.75-.13,2.17-1.09,1.94-2.7-.29-1.97-1.14-3.7-2.03-5.42-2.1-4.07-5.13-4.77-8.73-2.02-4.08,3.12-6.71,7.34-8.42,12.06-3,8.26-3.64,16.82-2.37,25.48,1.23,8.42,8.95,12.16,16.05,10.33,2.35-.6,3.93-1.96,4.83-4.27,1.28-3.27,1.37-6.66,1.51-10.84ZM152.12,170.4c.02,5.22-.3,14.38.02,23.54.09,2.43.31,2.52,2.88,2.7,2.2.15,2.16-1.11,2.11-2.59-.02-.7-.02-1.4-.02-2.1.15-18.47-.46-36.94-.08-55.42.18-8.81-.02-17.61-.42-26.42-.21-4.63.38-3.57-4.09-4.02-1.08-.11-1.3.33-1.37,1.29-.14,1.88.42,3.69.46,5.55.14,7.14.2,14.28.21,21.42.01,10.71-.32,21.42.29,36.06ZM231.27,294.85c1.2,4.48,2.83,8.71,4.53,12.94,1.28,3.19,3.14,6.05,4.44,9.21,1.15,2.79,1.79,2.98,4.45,1.62.79-.4.73-.8.43-1.46-1.37-2.95-2.73-5.9-4.05-8.87-2.35-5.31-4.94-10.52-7.01-15.96-.71-1.86-.25-2.71,1.7-3.06,2.19-.39,4.05-1.53,5.65-3.07,2.74-2.61,3.13-8.43.77-11.15-2.67-3.08-9.59-4.81-13.61-3.48-1.73.57-2.39,1.39-2.12,3.4,1.3,9.69,1.76,19.45,1.56,29.23-.09,4.5.11,9,.1,13.5,0,2.05,1.62,1.9,2.76,2.01,1.72.18.89-1.27.86-1.99-.24-4.96-.59-9.91-.86-14.87-.15-2.66-.33-5.32.4-8.02ZM484.17,61.15v-.11c-3.81,0-7.61.03-11.41-.02-1.37-.02-2.01.45-1.91,1.89.07,1.08.05,2.18-.05,3.25-.62,6.9-.13,13.79.15,20.69.04,1.05.32,1.42,1.46,1.48,2.12.13,4.15-.51,6.24-.52,1.45,0,1.97-.75,1.94-2.22-.07-4.11,0-8.22-.01-12.33-.02-3.49,2.64-5.77,6.16-5.08.82.16,1.49.04,2.25-.14,3.16-.74,4.71-.05,6.43,2.73.75,1.22,1.19,2.51,1.22,3.95,0,.47.04,1.08.63,1.04.64-.03.46-.69.47-1.11.11-3.41.03-6.82.41-10.22.35-3.2-.5-4.05-3.77-3.91-3.41.15-6.81.4-10.22.61ZM409.77,175.98c-1.31.56-2.78.93-2.43,2.13.6,2.09-.46,2.67-1.86,3.76-2.14,1.66-3.51,4.4-4.52,6.65-1.04,2.31-2.7,4.21-4.01,6.03-1.43,1.97-2.61,5.08-5.89,5.42-.51.05-.81.72-.97,1.24-.37,1.24-1.67,1.48-2.32,2.18-1.79,1.91-3.92,3.07-6.02,4.46-1.24.83-1.93,2.44-3.89,2.51-.96.04-1.71,1.09-1.6,2.01.1.87,1.17.46,1.8.46,4.34-.03,8.69-.3,13.02-.12,1.99.08,3.39-.4,4.74-1.77,3.32-3.37,6.75-6.64,10.11-9.97,1.54-1.53,3.05-3.04,3.35-5.41.83-6.41.12-12.83.51-19.58ZM411.77,93.54c-2.99-.04-3.02-.04-2.83,3.01.16,2.78.37,5.57.59,8.34.12,1.48.42,2.79,1.74,3.86,1.62,1.31,1.41,3.37-.19,4.81-1.65,1.48-1.73,4.84.08,5.97,1.2.75,1.11,1.26.31,2.1-1.01,1.06-.87,1.81.5,2.48,2.24,1.1,2.27,1.21.4,2.99-1.07,1.02-1.15,1.81.13,2.54,1,.57,1.29,1.18,1.05,2.41-.36,1.78,1.34,3.92,2.84,3.8,1.54-.12,3.06-.45,4.59-.7.72-.12,1.49-.42,1.63-1.14.51-2.57,2.15-4.86,1.41-7.77-.47-1.83-.2-3.85-.25-5.79-.06-2.63-.12-5.27-.17-7.9-.03-1.94-.85-3.02-2.93-3.01-.72,0-1.48-.01-2.11-.7-3.22-3.53-3.37-8.05-3.89-12.37-.34-2.85,0-2.89-2.89-2.93ZM202.93,293.74c-.07,0-.14,0-.2,0,0,.85.02,1.71,0,2.56-.19,6.21-.41,12.41-.57,18.62-.03,1-.35,2.31,1.4,2.37,3.8.13,7.6.33,11.4.43,1.78.05,2.96-.55,2.69-2.72-.18-1.45-.05-2.95-.03-4.42.02-1.6-.59-2.22-2.29-1.88-2.05.41-4.16.53-6.22.86-1.51.24-1.9-.37-1.83-1.79.13-2.56.14-5.12.17-7.68.04-3.19,0-3.26,3.07-4.03,1.36-.34,1.44-1.27,1.43-2.28-.01-1.28-1.01-.96-1.72-.84-1.87.29-2.48-.49-2.46-2.32.03-2.71-.18-5.43-.26-8.15-.09-3.61-.08-3.61,3.45-4.33q5.14-1.05,4.88-6.39c0-.16-.01-.31,0-.47.04-1.05-.48-1.27-1.47-1.19-3.17.26-6.35.47-9.53.6-1.47.06-1.97.54-1.95,2.09.09,6.99.04,13.97.04,20.96ZM277.53,306.7c0,3.03-.08,6.06.02,9.08.16,4.92-.69,4.22,4.66,4.26,1.4,0,1.81-.57,1.55-1.84-1.25-6.11-1.34-12.33-1.69-18.52-.14-2.37.43-3.11,2.72-3.46,1.22-.19,2.47-.34,3.7-.34,1.33,0,1.96-.33,1.87-1.86-.1-1.55-.7-2.05-2.17-1.87-1.15.14-2.32.17-3.49.15-1.05-.02-1.81-.51-1.81-1.69,0-3.26.01-6.52.09-9.78.03-1.29.76-1.83,2.12-1.89,2.94-.14,5.87-.5,8.8-.7,1.14-.07,1.66-.46,1.63-1.68-.07-2.17-.02-4.35.02-6.52.02-1.08-.34-1.55-1.51-1.44-4.25.41-8.5.83-12.76,1.09-1.7.1-2.04.9-1.98,2.37.08,2.09.11,4.2-.03,6.28-.63,9.45-1.33,18.89-1.73,28.35ZM501.61,114.31s.02,0,.04,0c0-1.71-.02-3.42,0-5.12.03-1.63-.77-1.55-1.93-1.05-1.04.45-.97,1.33-.97,2.16,0,5.12,0,10.23.08,15.35.14,8.98.39,17.97.49,26.95.17,14.28-.11,28.56.62,42.83.07,1.38.34,2.15,1.87,2.3,1.64.16,1.77-.84,1.84-1.99.08-1.32.22-2.64.19-3.95-.21-7.45-.49-14.89-.71-22.34-.53-18.38-1.03-36.75-1.54-55.13ZM438.07,154.17c-3.49-.51-6.98-.58-10.48-.52-1.48.02-1.79.75-1.82,2.05-.04,1.56.85,1.47,1.96,1.45,5.36-.09,10.7.61,16.06.31,1.46-.08,2.08.66,2.03,2.15-.15,4.19-.63,8.37-.45,12.57.04.96-.23,1.38-1.33,1.29-5.35-.45-10.72-.11-16.07-.07-.79,0-2.07-.52-2.07,1.06,0,1.22-.18,2.58,1.45,3.05.52.15,1.05.38,1.58.39,6.91.12,13.82.41,20.74.12,1.49-.06,1.98-.84,2.08-2.22.22-3.02.52-6.04.39-9.07-.12-2.71-.54-5.4-.28-8.13.36-3.8-.12-4.32-3.99-4.4-3.26-.06-6.52-.01-9.78-.01ZM485.55,203.38c0,.2,0,.4,0,.6-3.72,0-7.44.05-11.16-.02-1.55-.03-2.04.61-1.94,2.09.15,2.4.2,4.8.24,7.2.06,3.18.04,3.11,3.16,3.09,5.95-.03,11.85-1.11,17.83-.72,2.77.18,3.98-.96,4.36-3.76.29-2.14.12-4.33.31-6.49.15-1.72-.55-2.08-2.13-2.03-3.56.11-7.12.03-10.68.03ZM449.78,275.27c-2.25,5.31-4.89,10.39-6.04,16.05-1.96,9.65-5.29,18.97-7.03,28.68-.12.67-.63,1.6.03,1.93,1.1.54,2.43.46,3.66.32,1.22-.14,1-1.22,1.11-2.01.6-4.23,1.18-8.45,1.74-12.68.25-1.91,1.18-2.55,3-1.99,1.36.42,1.42,1.54,1.4,2.63-.05,4.84,1.01,9.57,1.32,14.36.13,2.03,1.46,1.67,2.63,1.61,1.63-.08.91-1.33.82-2.11-.14-1.15-.63-2.26-.7-3.41-.52-8.21-1.06-16.42-1.43-24.64-.29-6.24-.35-12.49-.51-18.74ZM437.33,172.25c0,.05,0,.11,0,.16,1.86,0,3.72,0,5.57,0,.81,0,1.62.06,1.65-1.09.11-3.71.24-7.42.3-11.14.01-.85-.15-1.83-1.34-1.77-5.35.25-10.67-.54-16.01-.48-1.29.01-1.74.56-1.69,1.86.13,3.47.37,6.96-.03,10.43-.23,2,.67,2.64,2.51,2.52,3.01-.19,6.03-.33,9.04-.49ZM423.97,157.65c-.01.32-.03.64-.04.95-2.43.44-4.88-.05-7.32-.09-2.35-.03-4.48,3.03-3.45,5.02.52,1.01.26,1.57-.56,2.14-1.23.85-2.14,1.79-1.31,3.47.4.8-.04,1.49-.72,2.01-.62.48-1.23,1.03-1.43,1.79-.28,1.04-.18,1.98,1.3,1.67,4.06-.83,8.18-.52,12.27-.71,1.8-.08,2.43-.53,2.37-2.39-.2-5.73-.68-11.46-.38-17.21.08-1.52-.9-1.89-2.06-1.9-1.94-.02-3.88.06-5.81.14-1.05.05-2.18.09-1.24,1.7.3.51-.05,1.03-.44,1.46-.39.43-1.24.68-.88,1.44.31.66,1.1.46,1.68.47,2.67.04,5.34.02,8.02.02ZM483.07,59.62c0-.12,0-.24,0-.36,2.48,0,4.98.19,7.43-.06,1.88-.19,4.43,1.13,5.4-.36.87-1.33.08-3.74.03-5.67-.06-2-.91-3.04-3.08-3.25-2.63-.25-5.24-.38-7.87-.37-4.26.02-8.52-.07-12.78-.07-.57,0-1.76-.25-1.07,1,1.34,2.44,1.1,4.95.39,7.43-.41,1.44.03,1.74,1.33,1.73,3.4-.04,6.81-.01,10.21-.01ZM267.69,39.48c4.37,0,8.1-.13,11.82.05,1.92.09,2.25-.69,2.15-2.28-.11-1.78-1.44-1.9-2.65-1.93-4.42-.1-8.84-.18-13.26-.12-5.98.08-11.95.41-17.93-.09-3.26-.27-6.53-.23-9.78.02-3.11.23-6.19.36-9.28-.26-1.76-.36-2.27.24-1.95,2,.22,1.25.72,2.08,2.21,2.23,1.85.19,3.7.44,5.56.46,11.25.08,22.5.28,33.11-.08ZM470.92,96.2c-.08,1.47-.14,2.94-.24,4.4-.11,1.47.26,2.4,2.03,2.22,5.15-.53,10.31-1.02,15.47-1.5,1.63-.15,1.85-.91,1.25-2.32-1.18-2.79-2.08-5.68-2.31-8.71-.14-1.86-1-2.38-2.7-2.2-3.69.38-7.39.8-11.09,1-1.93.1-2.58.86-2.42,2.7.12,1.46.02,2.94.02,4.41ZM315.73,290.43c-.14,9.4.21,18.78.47,28.18.04,1.49.68,1.86,1.98,1.85,3.42-.04,6.84-.08,10.25,0,1.49.03,1.65-.77,1.59-1.91-.06-1.08.49-2.46-1.41-2.56-2.09-.11-4.18-.36-6.27-.41-1.67-.04-2.44-.6-2.64-2.43-.33-2.95-.38-5.89-.29-8.83.23-6.84-.64-13.64-.52-20.47.08-4.5.18-9,.27-13.5.01-.63.1-1.24-.87-1.28-2.06-.08-3.14.94-3.07,2.98.19,6.13.61,12.25.51,18.39ZM161.88,48.56c5.71.21,11.31,1.17,16.94,1.19,6.9.02,13.79.44,20.71.3,10.94-.21,21.88.07,32.82-.27.76-.02,1.91.38,2.03-.92.11-1.18-.76-1.82-1.73-2.2-.48-.19-1.07-.08-1.61-.13-4.73-.41-9.46-.05-14.18.03-8.14.14-16.28.4-24.43.13-8.6-.28-17.22-.13-25.83-.25-1.92-.03-3.35.79-4.7,2.11ZM463.25,299.69c-.24,0-.47,0-.71,0,0-3.1-.03-6.21,0-9.31.06-4.34.19-8.69.27-13.03.02-1.22-.1-2.25-1.8-2.38-2.95-.22-3.25-.11-3.19,2.9.18,9.46.26,18.93.71,28.38.25,5.2.3,10.39.45,15.58.04,1.6.52,2.42,2.32,2.35,1.72-.07,1.99-.91,1.97-2.39-.05-7.37-.02-14.74-.02-22.11ZM302.25,297.88c.26,5.49-.67,13.88.3,22.25.11.99-.26,2.32,1.62,2.07,1.56-.21,2.29-.67,2.12-2.48-.38-4.01-.64-8.04-.42-12.09.63-11.7.38-23.44,1.33-35.13.12-1.47-.25-2.38-1.84-2.01-1.21.28-3.36-1-3.21,1.9.41,7.53-.04,15.06.1,25.48ZM246.55,49.67c6.23.04,6.38-.09,7.45-5.62.66-3.4.65-3.28-2.7-3.54-6.12-.48-12.25.6-18.37-.26-4.12-.58-4.07-.46-4.18,3.79-.04,1.31.37,1.68,1.53,1.56,1.75-.18,3.2.44,4.37,1.71.5.55,1.09.84,1.79.99,3.5.75,7.05,1.07,10.11,1.36ZM268.14,49.37c2.56,0,5.12-.03,7.68.01,1.08.02,1.81-.12,2.32-1.34.49-1.17,1.45-2.2,2.37-3.12,1.16-1.16,1.08-2.5.85-3.88-.07-.41-.55-.57-.95-.46-1.42.38-2.26,1.34-2.43,2.78-.15,1.29-.92,1.68-2.07,1.65-2.17-.07-4.34-.23-6.51-.17-1.82.04-2.62-.62-2.35-2.46.23-1.58-.61-2.04-2.04-1.99-2.79.1-5.57.16-8.36.2-1.06.01-1.48.45-1.54,1.54-.08,1.46-.16,2.99-.63,4.36-.65,1.92.48,2.53,1.84,2.99.71.24,1.55.24,2.3.14,3.17-.41,6.35-.32,9.53-.23ZM151.6,93.69c-.15,2.97-.29,5.67-.4,8.37-.03.67-.34,1.62.3,1.96,1.3.69,2.86.99,4.25.57,1.05-.31.68-1.58.65-2.47-.09-2.78-.43-5.63.32-8.29,1.2-4.26,1.43-8.44.31-12.71-.23-.87-.42-1.26-1.35-.55-2.31,1.76-4.46,3.47-4.13,6.88.21,2.15.04,4.33.04,6.23ZM502.36,83.2c0,2.91-.03,5.42,0,7.94.05,4.1.15,8.21.23,12.31.02.78.17,1.57,1.18.92,4.6-2.96,7.78-6.29,5.53-11.97-1.38-3.5-3.36-6.57-6.95-9.2ZM141.07,98.01c-4.95.35-9.89.68-14.84,1.04-4.56.33-4.31-.77-3.33,4.69.27,1.52.93,1.88,2.36,1.5,5.4-1.44,10.99-1.92,16.45-3.05.7-.14,1.91.18,1.93-1.08.02-1.51-1.47-3.24-2.57-3.1ZM497.82,92.09h0c0-1.71-.03-3.42.01-5.12.03-1.11-.35-1.37-1.38-.95-2.01.82-4.05,1.57-6.26,1.73-1.34.1-1.59.92-1.24,2.14.9,3.13,1.73,6.27,2.58,9.41.13.48.34.83.88.94,2.41.49,5.46-2.01,5.42-4.43-.02-1.24,0-2.48,0-3.73ZM157.16,201.22q.26-3.42-3.05-3.86c-.31-.04-.61-.1-.91-.18-.87-.24-1.36.05-1.37.98-.02,4.15-.94,8.3-.16,12.46.57,3.01,1.69,4.06,4.66,4.66,1.29.26,2.27.45,1.34-1.41-.44-.89-.53-1.91-.52-2.94.03-3.24.01-6.47.01-9.71ZM511.31,119.47c.91-.62,1.9-1.37,2.97-1.99,1.32-.77,1.59-1.67.87-3.07-1.32-2.55-2.59-5.12-4.2-7.51-2.48-3.68-2.47-3.66-5.97-1.15-.57.41-.89.73-.6,1.5,1.49,3.92,3.06,7.8,5.53,11.24.31.42.59.93,1.4.99ZM161.86,89.05c-.85,0-1.7,0-2.55,0-.6,0-1.12.22-1.11.9.04,2.99-1.55,5.74-1.17,8.83.2,1.67.65,2.25,2.35,2.26,3.93.02,4.22-.08,5.53-3.73.34-.94.64-1.91.85-2.89,1.22-5.69,1.9-4.93-3.9-5.37ZM261.05,162.62c0,3.02-.16,6.05.05,9.05.15,2.09-.5,2.67-2.54,2.71-7.67.13-15.34.39-23.01.28-.81-.01-1.82-.18-1.83,1.15,0,1.18.82,1.11,1.62,1.06,8.75-.49,17.51.28,26.26.05,1.93-.05,2.21-.7,2.37-2.39.41-4.28-1.45-8-2.93-11.92ZM150.21,86c-.64.72-1.22,1.23-1.63,1.86-.97,1.49-1.84,3.03-2.77,4.54-2.93,4.76-.49,8.24,3.03,10.59,1.11.74,1.71.87,1.72-.86.03-4.55.2-9.1.34-13.65.02-.79-.04-1.54-.69-2.49ZM218.79,162.37c0,2.09.09,4.19-.03,6.28-.08,1.38.32,2.43,1.68,2.55,1.48.13,1.91-1.08,1.95-2.34.05-1.55-.49-3.36.13-4.6,1.68-3.33-.16-6.17-.68-9.2-.18-1.04-.84-1.37-1.86-1.27-1.03.1-1.21.73-1.2,1.61.03,2.33,0,4.65.01,6.98ZM499,79.33c.56,8.87.61,17.31-.08,25.74-.04.48-.24,1.31.5,1.32.84,0,1.71-.42,2.07-1.26.23-.54.21-1.22.21-1.83,0-6.68-.06-13.36,0-20.03.01-1.78-.77-2.88-2.69-3.94ZM408.13,107.51c1-1.01.62-2,.5-2.98-.24-2.08-.61-4.15-.78-6.23-.4-4.95-.52-9.92-1.12-14.84-.7-5.83-2.35-11.52-2.85-17.39-.03-.39-.11-.77-.17-1.15-.09-.53-.13-1.24-.87-1.09-.77.15-.37.88-.41,1.37-.02.23.02.47.06.69,2.02,11.77,3.19,23.66,4.89,35.48.29,2.04.5,4.09.75,6.14ZM484.56,78.48c-.11,0-.22,0-.33,0,0-2.4,0-4.79,0-7.19,0-.6.15-1.39-.57-1.62-.83-.27-1.45.34-2,.89-.49.5-.39,1.14-.39,1.76,0,4.4.46,8.81.02,13.21-.11,1.14.15,1.7,1.48,1.56,1.12-.12,1.91-.14,1.83-1.65-.13-2.31-.03-4.64-.03-6.95ZM171.18,79.07s.08,0,.13,0c0,2.47-.03,4.94.02,7.41.02.76-.29,1.92,1.08,1.83.98-.06,1.45-.73,1.45-1.75,0-4.56.01-9.11.03-13.67,0-.82-.24-1.51-.93-2.01-.43-.31-.79-.88-1.39-.66-.68.25-.37.93-.38,1.42-.02,2.47-.01,4.94-.01,7.41ZM170.45,87.5c0-5.2.01-10.38-.02-15.56,0-.43-.15-1.08-.44-1.25-.54-.31-.98.26-1.37.61-2.05,1.82-2.63,5.88-1.14,8.79.9,1.76,1.5,3.56,1.44,5.55-.03,1.04.18,1.85,1.53,1.86ZM156.35,67.67c-3.78,4.88-5.92,10.62-5.27,13.45,1.75-.85,2.98-2.48,4.85-3.14.28-.1.57-.6.58-.93.08-3.13.41-6.27-.15-9.38ZM485.08,77.66c.13,2.86.2,5.1.35,7.34.04.6-.34,1.66.72,1.61.83-.04.55-1.01.49-1.54-.42-3.83,1.46-7.32,1.73-11.1.12-1.67.14-2.77-.78-4.01-.43-.58-.91-1.14-1.71-.89-.74.23-.66.99-.74,1.57-.35,2.54-.06,5.1-.07,7.02ZM163.11,79.55c.14-.77.44-1.64-.88-1.55-.77.05-1.66,0-1.67,1.12-.02,2.87-.2,5.83,2.62,7.7,1.09.72,2.51,2.19,3.59,1.13,1.16-1.14-.57-2.27-1.26-3.29-1.07-1.58-2.52-2.96-2.4-5.1ZM265.97,106.28c2.09-13.62,2.34-27.48,5.48-40.96-3.6,13.42-4.39,27.21-5.48,40.96ZM495.78,78.98c-.04-.62-.01-1.25-.14-1.85-.19-.87-.91-1.39-1.7-1.31-.88.09-.53.99-.53,1.54-.02,1.45-.28,2.92-1.27,3.9-1.13,1.11-1.46,2.51-2.06,3.83-.73,1.58.28,1.55,1.29,1.38.85-.15,1.57-.65,2.18-1.27,1.7-1.73,2.13-3.91,2.24-6.22ZM498.31,102.96s-.04,0-.06,0c0-.7-.02-1.39,0-2.09.05-1.31-.51-1.33-1.57-.95-4.65,1.68-4.9,2.63-1.49,6.32.1.11.2.24.32.34,1.26,1.09,2.34.76,2.62-.85.15-.91.13-1.85.19-2.77ZM408.72,48.36s0-.03,0-.04c1.94,0,3.88.02,5.82-.01.57-.01,1.48.27,1.57-.53.09-.89-.87-.99-1.53-1.07-1.85-.23-3.7-.44-5.55-.53-2.09-.11-4.19-.01-6.24.53-.6.16-1.36.31-1.33,1.07.04,1,.94.56,1.45.58,1.94.05,3.88.02,5.82.02ZM165.84,69.45c-1.96,0-4.36,2.59-4.81,5.34-.11.68-.88,1.84.61,1.99,1.07.11,2.45.53,2.76-1.22.28-1.62,1.36-2.75,2.33-3.96.36-.44,1.18-.78.78-1.5-.31-.56-1.03-.62-1.67-.65ZM490.7,68.58c-.6.38-2.18-.43-2.08,1.18.13,1.89,4.16,4.77,6.06,4.62.56-.05.82-.19.87-.79.17-1.92-2.68-4.99-4.86-5.01ZM419.02,99c-.14-1.31-.35-2.69-.41-4.07-.05-1.35-.93-1.38-1.9-1.43-1.03-.06-1.32.45-1.35,1.39-.05,1.63,0,3.15.76,4.71.5,1.03.61,2.07,2.08,1.73,1.44-.33.74-1.43.81-2.33ZM162.96,88.36c-2.64-2.15-3.29-4.84-3.2-7.87.02-.6.29-1.62-.83-1.55-.98.06-1.11.74-.95,1.69.3,1.83.63,3.7.52,5.53-.12,1.99.69,2.48,2.41,2.3.68-.07,1.36-.07,2.05-.1ZM361.72,8.02c0-1.87.04-3.25-.01-4.63-.03-.92-.47-1.73-1.43-1.86-2.15-.29-4.3-.01-6.45.13-.4.03-.73.36-.66.8.07.44.46.59.88.57,1-.05,2-.1,3-.18,1.49-.11,2.57.21,2.67,2.03.06,1.19.77,2.1,2.02,3.13ZM159.98,48.24c.8.32,1.01-.35,1.42-.63.44-.31.86-.65,1.32-.93,1.61-.97,1.82-2.53.42-3.84-.45-.42-.97-.76-1.2-1.36-.22-.57-.57-.93-1.22-.73-.64.2-.72.75-.73,1.3-.01,2.07,0,4.15,0,6.19ZM411.6,92.74c.46,0,.93,0,1.39,0,1.06,0,2.04,0,2-1.53-.04-1.43-.95-1.57-2.03-1.62-1.24-.06-2.48-.1-3.7-.24-1.11-.12-1.3.38-1.25,1.35.15,2.57,2.05,1.96,3.58,2.04ZM117.88,102.81c.1.62.12,1.09.25,1.52.43,1.43,1.52,1.96,2.86,1.67,1.46-.31.63-1.49.59-2.29-.04-.76-.25-1.52-.46-2.25-.2-.71-.06-1.82-.87-1.95-1.03-.18-1.55.86-1.96,1.67-.27.53-.31,1.17-.41,1.63ZM312.84,6.52c.34-.24.54-.36.7-.52.16-.16.38-.38.38-.56-.04-3.38,2.23-3.04,4.46-2.81.38.04.77.01,1.16,0,.46-.03,1.02-.02,1.05-.63.03-.54-.44-.8-.9-.9-1.37-.31-2.76-.33-4.15-.21-2.38.2-2.93.77-3,3.19-.02.75-.17,1.53.3,2.46ZM413.52,135.39c.8,3.75.16,7.12.65,10.84,1.87-2.6,1.52-9.11-.65-10.84ZM494.62,85.5c3.05-1.27,4.3-3.92,3.3-6.49-.16-.41-.41-.67-.85-.61-.57.07-.41.57-.43.91-.09,2.18-.66,4.22-2.03,6.2ZM157.27,103.22c-.06.92.08,1.63,1.21,1.47,1.4-.19,2.78-.92,2.82-2.23.03-.96-1.52-.43-2.36-.56-1.02-.16-1.91-.04-1.67,1.32ZM514.28,121.03c1.01,0,1.86-.28,2.11-1.39.14-.6.32-1.41-.26-1.72-.93-.5-1.46.55-2.18.91-.14.07-.27.16-.38.26-.45.39-1.36.61-1.13,1.28.24.72,1.15.61,1.84.66ZM498.72,86.25s-.07,0-.1,0v7.86s.07,0,.1,0v-7.86ZM499.01,75.59c-.11,2.24,1.23,2.47,2.31,2.96-.13-1.36-1.14-1.92-2.31-2.96ZM268.03,73.59c-.51,1.59-1.08,2.56-.24,3.84.53-1.2.89-2.16.24-3.84ZM396.69,64.98c-.08-.98.3-1.89-.56-2.48-.25-.17-.75-.09-.78.19-.1.89.38,1.6.96,2.23.04.04.14.03.39.06ZM91.1,273.72s.1.04.15.06v-5.78s-.1,0-.15,0v5.71ZM407.8,112.82c.06-.93.26-1.88-.35-3.05-.59,1.3-.6,2.22.35,3.05ZM279.28,62.69c-2.1.27-1.69,1.35-1.41,2.39.4-.68.8-1.36,1.41-2.39ZM265.07,112.64c.05.6-.66,1.14-.21,1.81.01.02.13-.04.22-.06.21-.55.32-1.11,0-1.74ZM265.67,108.35c-.15.37-.25.5-.24.63.02.24-.19.54.17.69.02-.36.04-.72.07-1.32ZM358.81,4.15s-.22-.17-.43-.23c-.28-.08-.45.09-.35.36.07.19.23.41.41.49.28.11.38-.11.36-.62ZM399.39,62.55c-.14-.02-.27-.05-.41-.05-.03,0-.07.1-.1.15.14.02.28.06.42.06.03,0,.06-.1.09-.16ZM46.48,177.69c-.05.19-.08.27-.1.36.03,0,.09-.01.09-.02,0-.07,0-.15,0-.33ZM488.47,92.02c-.03-.06-.05-.12-.08-.17,0,.11,0,.23,0,.34.03-.06.05-.11.08-.17ZM167.68,90.6l-.05-.08v.15s.05-.07.05-.07ZM413.77,151.99c-.02.06-.07.13-.05.17.02.05.11.07.16.1,0-.06,0-.13,0-.19-.01-.04-.07-.06-.1-.08ZM490.19,98.28l.1.02-.04-.14-.07.13Z"/>
  <path d="M585.69,328.06s-.09.1-.13.14c-.05-.09-.1-.19-.16-.28.07-.02.15-.06.19-.04.05.02.06.12.09.18Z"/>
  <path d="M292.83,188.67c-1.27-.49-2.28-1.41-3.1-2.39-4.8-5.69-9.47-11.5-12.51-18.38-1.43-3.22-2.02-6.7-2.36-10.16-.55-5.7-1.93-11.32-1.65-17.11.38-7.87,1.69-15.58,4.26-23.01.95-2.74,2.53-5.34,4.19-7.76,5.59-8.15,11.83-15.74,20.26-21.17,4.9-3.15,10.16-5.49,15.77-7.28,3.68-1.17,7.29-2.29,11.09-3.1,6.87-1.48,13.51-.95,20.28.53,7.99,1.74,15.36,4.77,22.18,9.24,1.16.76,2.51,1.23,3.71,1.94,4.55,2.7,8.05,6.57,11.28,10.63,2.92,3.69,5.87,7.39,7.98,11.65.34.69.95,1.28,1.17,2,2.3,7.53,5.44,14.86,5.72,22.9.25,7.05.76,14.24-.99,21.07-2.31,9.04-4.73,18.22-10.68,25.79-3.24,4.13-7.41,7.28-12.18,9.51-3.04,1.42-5.76,3.38-8.55,5.16-5.39,3.44-11.21,5.59-17.39,6.91-8.03,1.72-16.13,2.37-24.3,1.11-6.7-1.03-12.72-3.93-18.61-7.08-2.8-1.5-5.48-3.21-8.23-4.81-.88-.51-1.75-1.02-2.22-1.97l.02-.02c6.67,3.77,13.21,7.74,20.34,10.7,5.62,2.33,11.46,2.56,17.25,3.01,5.09.39,10.21-.65,15.23-1.71,6.18-1.3,12.02-3.42,17.4-6.87,2.28-1.46,4.33-3.44,6.79-4.42,6.65-2.64,11.25-7.48,14.58-13.43,2.33-4.16,4.24-8.61,5.95-13.13,3.03-7.99,5.12-16.09,4.87-24.71-.16-5.75-.67-11.36-2.51-16.93-1.78-5.37-3.05-10.81-6.21-15.69-1.53-2.36-3.38-4.41-4.97-6.69-3.12-4.49-6.69-8.55-11.32-11.54-1.82-1.18-3.83-2.06-5.62-3.27-4.1-2.74-8.54-4.84-13.17-6.33-9.45-3.05-19.07-5.14-29.06-2.42-1.48.4-3.33-.1-4.53.83-2.01,1.57-4.39,1.79-6.63,2.5-7.49,2.38-14.37,5.86-20.04,11.39-2.75,2.69-5.46,5.48-7.8,8.52-2.02,2.63-4.88,4.58-6.33,7.65-2.83,6.01-6.05,11.84-6.93,18.64-.76,5.92-1.74,11.79-1.14,17.8.21,2.09.86,4.13.92,6.21.26,7.89,2.36,15.16,7.17,21.48,3.09,4.06,5.38,8.74,9.36,12.12.64.55,1.31,1.14,1.21,2.14l.03-.03ZM387.45,184.95c.15-.16.31-.32.46-.48.16-.15.31-.31.47-.46,0,0,.03.03.03.03l-.47.46c-.17.15-.34.31-.5.46l-.06.07.07-.08ZM389.32,182.63l.08-.06-.09.07-.08.09.09-.1ZM398.61,160.67s.09-.08.13-.12c-.04.05-.08.1-.11.15l-.02-.03ZM390.25,181.23c.14-.32.29-.65.43-.97.16-.3.31-.61.47-.91,2.57-3.11,4.17-6.65,4.68-10.67.06-.05.13-.09.17-.14.03-.04.03-.11.04-.17-.06.11-.12.23-.18.34-1.28,3.68-3.65,6.88-4.68,10.67-.16.31-.31.61-.47.92-.16.32-.31.63-.47.95l-.06.07s.07-.08.07-.08Z"/>
  <path d="M297.93,192.9c-.85-.16-1.45-.66-1.85-1.42h-.01c.86.15,1.57.5,1.88,1.39l-.02.02Z"/>
  <path d="M296.09,191.49c-.89-.1-1.44-.66-1.85-1.4l-.03.03c.82.2,1.54.54,1.87,1.39h.01Z"/>
  <path d="M293.3,189.14c-.16-.15-.32-.31-.47-.46,0,0-.03.03-.03.03.16.15.32.31.48.46l.02-.03Z"/>
  <path d="M293.76,189.6c-.16-.16-.31-.31-.47-.47,0,0-.02.03-.02.03.16.16.31.31.47.47l.03-.03Z"/>
  <path d="M294.24,190.08c-.16-.16-.32-.32-.47-.48,0,0-.03.03-.03.03.15.16.31.31.46.47l.03-.03Z"/>
  <path d="M338.92,54.28c-.24,1.1-.89,1.79-2.06,1.71-1.07-.08-1.67-.8-1.59-1.86.08-1,.63-1.8,1.72-1.77,1.14.03,1.76.78,1.92,1.93Z"/>
  <path d="M294.67,34.93c.1-.92.56-1.57,1.43-1.9-.19.85-.6,1.53-1.43,1.9Z"/>
  <path d="M450.08,75.24c-.01,6.91-4.51,11.68-11.1,11.71-6.65.02-12.86-5.94-12.57-13.12.22-5.48,5.87-11.08,11.82-10.76,6.2.33,11.9,4.98,11.85,12.18ZM448.91,75.33c.52-6.7-5.29-10.98-11.67-11.04-5.03-.05-9.93,6.43-9.9,10.94.04,5.53,5.96,10.92,11.68,10.76,6.02-.16,10.6-5.63,9.88-10.66Z"/>
  <path d="M209.66,95.75c0-2.27,1.5-3.77,3.8-3.77,1.82,0,3.71,1.9,3.75,3.77.04,1.81-1.86,3.77-3.71,3.83-2,.07-3.84-1.76-3.84-3.83ZM213.43,92.94c-.13.52.21,1.12.46,1.18,2.15.55,1.43,1.55.73,2.89-.47.9-1.06,1.43-1.61.68-.49-.67-2.58-.64-1.32-2.26.43-.55.68-1.04.17-1.62-.12-.14-.44-.23-.61-.16-.67.25-.81.85-.88,1.49-.21,1.7.94,3.27,2.59,3.52,1.36.2,3.03-.96,3.31-2.31.34-1.61-.69-2.85-2.84-3.4Z"/>
  <path d="M438.57,100.82c-2.01-.04-3.63-1.58-3.62-3.45,0-2.31,1.75-4.29,3.73-4.24,2.17.06,3.92,1.9,3.9,4.08-.02,2.04-1.81,3.65-4,3.61ZM436.87,99.21c.41.62.92.96,1.66.6.07-.03.11-.29.06-.39-.49-.93-1.16-.15-1.75-.17-.27-1.31,1.17-2.13.99-3.44-.04-.3.51-.58.66-.33.62.98,1.97.38,2.51,1.14.59.82-.72,1.24-.76,2-.01.19.11.39.21.74,1.71-1.25,1.57-2.64.58-4.04-.94-1.33-2.76-1.59-3.88-.68-1.47,1.19-1.58,2.97-.28,4.58Z"/>
  <path d="M419.06,282.82c0-1.54.04-3.09-.01-4.63-.05-1.55.84-2.07,2.17-2.02,1.34.06,2.69.44,3.52,1.52,1.69,2.17,1.86,4.69,1.03,7.24-.78,2.41-2.83,3.33-5.09,3.86-1.08.25-1.61-.24-1.6-1.34,0-1.54,0-3.09,0-4.63h-.02Z"/>
  <path d="M182.91,40.85c-.05.5,0,1.62-.68,1.31-1.39-.63-3.28,1.33-4.22-.85-.24-.55-.33-1.22.03-1.8.24-.4.54-.41.96-.14.75.48,1.57-.09,2.49.14,1.34.34,1.44-.06,1.43,1.34Z"/>
  <path d="M225.23,40.91c.12,1.07-.03,1.89-.55,1.75-1.05-.28-2.36.32-3.11-.65-.44-.57-.3-1.47.07-2.19,1.08.73,2.25-.74,3.24.09.34.28.34.97.35,1Z"/>
  <path d="M192.22,40.67c-.07.74.21,1.71-.97,1.72-1.16,0-1.02-.96-.99-1.68.03-.76-.29-1.95.94-1.96,1.22,0,.86,1.19,1.02,1.93Z"/>
  <path d="M192.93,40.34c.19-.58-.25-1.67.78-1.57,1.24.11.95,1.34,1.07,2.19.11.74-.04,1.52-.98,1.4-1.24-.16-.7-1.28-.87-2.02Z"/>
  <path d="M175.26,40.24c.07-.63-.13-1.53.71-1.49,1.26.06,1.04,1.3,1.24,2.12.17.67-.03,1.28-.88,1.23-1.29-.08-.91-1.16-1.07-1.86Z"/>
  <path d="M200.07,40.64c-.01.71.11,1.52-.85,1.62-.95.1-1.11-.63-1.06-1.37.05-.72-.14-1.7.97-1.73.99-.03.86.86.94,1.48Z"/>
  <path d="M220.86,41.3c.03.85-.09,1.62-.83,1.55-1.25-.11-.8-1.24-.83-1.98-.03-.62-.21-1.69.71-1.62,1.32.11.51,1.53.95,2.05Z"/>
  <path d="M197.19,40.55c-.03.72.14,1.65-.81,1.66-1.09,0-.92-1.02-.94-1.75-.01-.68-.07-1.61.84-1.62,1.14-.01.75,1.08.91,1.71Z"/>
  <path d="M185.45,40.7c.2-.66-.38-1.85.68-1.87,1.16-.02.84,1.23.9,2,.05.7.28,1.81-.83,1.75-1.09-.06-.56-1.2-.75-1.87Z"/>
  <path d="M203.43,40.44c.09-.49-.32-1.29.57-1.23,1.02.07,1,1.04,1.1,1.77.09.63-.09,1.43-.86,1.32-1.05-.15-.64-1.2-.81-1.86Z"/>
  <path d="M207.49,40.37c.05-.48-.12-1.34.81-1.16,1.07.21.72,1.35.98,2.07.16.46-.01.96-.66.87-.98-.13-1.12-.88-1.13-1.78Z"/>
  <path d="M216,40.92c-.06.68.09,1.62-.94,1.45-1.05-.18-.63-1.22-.71-1.91-.07-.57-.21-1.4.73-1.32,1.1.09.77,1.11.92,1.78Z"/>
  <path d="M174.5,40.74c-.06.58.2,1.41-.66,1.48-1,.08-.96-.81-.93-1.47.02-.62-.31-1.64.59-1.71,1.07-.08.85,1.01,1,1.7Z"/>
  <path d="M216.73,40.94c.04-.72-.02-1.6.87-1.64,1.01-.05.76.94.87,1.55.14.76-.06,1.45-.98,1.44-.91-.01-.68-.82-.76-1.35Z"/>
  <path d="M209.73,40.74c.12-.53-.14-1.44.72-1.39,1.22.07.79,1.25.98,1.97.18.67-.21,1.03-.86.98-1.02-.08-.78-.91-.85-1.56Z"/>
  <path d="M200.86,40.92c.13-.6-.17-1.55.92-1.47,1.01.08.7,1.02.83,1.63.15.73-.18,1.24-.94,1.22-.9-.02-.75-.78-.81-1.38Z"/>
  <path d="M188.47,38.82c.3.18.41.2.43.26.46,1.01.72,2.05.15,3.09-.16.29-.64.27-.79-.01-.58-1.1-.54-2.19.21-3.34Z"/>
  <path d="M207.08,40.8c-.08.65.07,1.57-.92,1.53-.87-.04-.65-.91-.64-1.47.01-.64-.13-1.6.86-1.56.79.03.64.9.7,1.5Z"/>
  <path d="M184.33,40.86c-.13.56.27,1.54-.5,1.54-.96,0-.7-1.02-.63-1.64.06-.6-.35-1.7.59-1.65.84.04.36,1.15.55,1.75Z"/>
  <path d="M213.54,40.57c.01.62-.05,1.24-.76,1.22-.71-.02-.73-.69-.7-1.23.02-.5-.13-1.24.6-1.28.88-.05.76.77.86,1.29Z"/>
  <path d="M231.01,280.03c0-.77.05-1.55-.01-2.31-.08-1.06-.05-2.04,1.09-2.54,1.09-.48,2.15-.2,3.09.38,2.16,1.34,3.22,5.45,2.03,7.7-.75,1.41-1.91,2.17-3.53,2.26-1.59.09-2.53-.51-2.49-2.24.02-1.08,0-2.16,0-3.24h-.19Z"/>
  <path d="M446.27,302.43c-2.68-.09-2.78-.23-2.05-2.82.65-2.31,1.23-4.62,1.5-7.01.06-.53.16-1.4.96-1.3.66.08.5.85.57,1.36.32,2.53.63,5.05.95,7.58.28,2.19.22,2.27-1.93,2.2Z"/>
  <path d="M179.33,29.39h32.88c-1.76,1.44-30.06,1.35-32.88,0Z"/>
  <path d="M383.13,125.45c.86-1.49.65-3.06,1.86-4.24.62,1.04.18,1.94-.13,2.81-.31.88-.75,1.79-.49,2.71,1.12,3.91.71,7.98,1.3,11.96,1.53,10.42-.92,20.19-6.15,29.23-3.64,6.29-8.21,11.81-14.03,16.28-2.96,2.27-6.49,3.3-9.82,4.66-8.46,3.46-17.25,3.9-26.29,2.38-5.92-1-11.14-3.8-16.75-5.54-1.22-.38-2.1-1.28-3.02-2.13-1.45-1.33-2.73-2.88-5-3.02-.68-.04-1.31-1-2.01-1.58-.72.54-.03,1.52-.64,2.06-.64.05-.81-.47-.8-.88.03-2.16-.89-2.49-2.55-1.29-.64-1.28.63-1.52.95-2.25-.55-.72-1.74.06-2.19-.95.17-.97,1.76-.1,1.67-1.06-.1-1.01-.36-2-.99-2.99-5.16-8.05-9.06-16.67-10.07-26.26-.59-5.53,1.09-10.91,2.53-16.22,1.98-7.31,5.36-13.95,10.53-19.43,5.09-5.41,11.35-9.27,18.21-12.25,10.27-4.45,20.67-4.02,31.25-1.62,1.86.42,3.45,1.42,5.08,2.27,5.05,2.66,10.52,4.63,14.71,8.74,2.29,2.24,4.06,4.89,5.99,7.41,2.59,3.39,4.83,7.02,6.84,11.18ZM304.35,177.58c3.34,3.81,7.23,6.97,12.19,8.73.88.31,1.75.63,2.6,1.01,6.8,2.97,13.91,4.32,21.3,3.93,7.05-.38,13.7-2.08,20.02-5.45,5.39-2.87,9.94-6.63,13.59-11.38,5.19-6.76,9.08-14.14,10.44-22.79.97-6.17.87-12.19-.43-18.25-.09-.43-.06-1.05-.65-1.04-.28,0-.65.4-.82.71-.51.93-.95,1.9-1.65,3.34-.43-2.41-.8-4.34-1.11-6.28-.1-.63.42-.98.87-1.27,1.87-1.24,1.94-2.77.88-4.6-5.64-9.67-12-18.63-22.7-23.4-.21-.09-.41-.22-.61-.34-3.69-2.37-7.6-4.13-12.01-4.76-5.49-.79-11.07-1.24-16.48-.45-6.21.91-12.01,3.47-17.51,6.67-10.82,6.31-17.72,15.51-21.07,27.49-1.85,6.6-3.1,13.14-1.69,20.15,1.52,7.55,4.91,14.16,8.53,20.76.51.93,1.37,1.68,2.06,2.51.19.23.56.64.7.38,1.36-2.43,1.16-.03,1.48.48.35.56.73.38,1.19.24.61-.18,1.1-.96,1.84-.45.25.88-.84,1.11-.81,1.86.53.49,1.71-.1,1.81.68.15,1.21-1.46.44-1.96,1.54Z"/>
  <path d="M337.28,181.85c-8.99-.13-16.45-3.36-23.21-8.59-4.01-3.1-7.67-6.46-10.63-10.64-2.88-4.06-4.59-8.44-4.89-13.36-.42-6.82-1.08-13.81,1.62-20.25,4.22-10.05,11.1-17.73,21.37-22.22,7.68-3.36,15.53-4.13,23.68-2.92,3.19.47,6.14,1.73,8.83,3.44,3.31,2.11,6.86,3.79,9.83,6.53,3.5,3.22,6.08,7.1,8.54,11,2.18,3.46,2.7,7.7,3.49,11.74,1.2,6.11-.14,12.05-1.06,18.01-.71,4.58-2.94,8.63-5.99,11.92-5.56,6.01-11.76,11.33-19.99,13.53-3.91,1.04-7.82,2.02-11.59,1.81ZM318.21,138.27c6.16-.08,12-.71,17.13-4.41,3.18-2.29,5.38-5.05,5.98-8.99.43-2.83,1.04-5.64,1.98-8.35.78-2.24.77-2.33-1.62-2.65-3.98-.54-7.74.62-11.38,1.85-10.72,3.62-18.15,10.43-20.35,21.99-.39,2.05-.3,2.16,1.76,1.51,2.17-.68,4.36-1.09,6.51-.95ZM336.76,161.34c0-.05,0-.11,0-.16.7,0,1.4.06,2.09,0,5.27-.55,9.8-2.49,13.24-6.74,2.22-2.74,2.97-6.1,4.36-9.19.26-.57.94-1.25.28-1.89-.48-.47-1.18-.11-1.78-.01-5.25.9-10.14,2.75-14.79,5.36-4.31,2.42-7.14,6.07-9.31,10.37-.6,1.19-.18,1.72,1.05,1.82,1.62.15,3.24.3,4.85.45Z"/>
  <path d="M303.72,119.88c-4.27,5.94-6.3,12.71-7.33,19.85-.58,4.06-.04,8.04.8,12,.27,1.28.78,2.52.75,3.87l.03-.03c-2.01-4.22-2.65-8.75-2.33-13.31.58-8.2,2.4-16.06,7.7-22.7.12.11.24.22.36.32Z"/>
  <path d="M301.19,116.48c2.68-2.02,4.28-5.2,7.46-6.69-1.38,1.49-2.73,2.99-4.14,4.45-5.25,5.45-8.47,11.92-9.86,19.33-.07.36-.31.69-.47,1.03l.03.02c-.04-2.98.77-5.76,1.96-8.46.52-1.19,1.23-2.32,1.33-3.66l-.03.05c.38-.22.45-.59.5-.98l-.03.05c.38-.22.46-.59.5-.98l-.03.05c1.01-.69,1.53-1.72,1.9-2.84l-.03.05c.47-.38.81-.85.97-1.45l-.04.04Z"/>
  <path d="M298.53,125.41c-.83,3.7-2.38,7.19-3.16,10.92-.89,4.24-.56,8.49-.67,12.74l.03-.02c-1.03-3.33-.65-6.74-.29-10.09.51-4.77,1.87-9.36,3.86-13.74.08.06.16.13.24.19Z"/>
  <path d="M298.29,125.22c2.51-6.22,6.77-11.04,12.02-15.09-4.83,4.4-8.65,9.58-11.78,15.28-.08-.06-.16-.13-.24-.19Z"/>
  <path d="M303.35,119.56c2.8-4.49,6.59-7.95,11.01-10.77-3.96,3.31-7.52,6.99-10.65,11.09-.12-.11-.24-.22-.36-.32Z"/>
  <path d="M290.49,137.42c.48-5.83,2.29-11.25,5.03-16.38.06.05.12.11.18.16-2.19,5.26-3.74,10.72-5.25,16.2l.03.03Z"/>
  <path d="M297.49,122.5c-.6.81-1.2,1.62-1.8,2.43l-.18-.15c1.92-4.78,4.43-9.17,8.34-12.64.1.09.19.18.29.26-.76,1.53-2.58,2.28-2.96,4.08l.04-.04c-.59.3-.91.79-.97,1.45l.03-.05c-1.12.62-1.74,1.58-1.9,2.84,0,0,.03-.05.03-.05-.41.2-.48.58-.5.98l.03-.05c-.39.21-.45.6-.5.98l.03-.05Z"/>
  <path d="M296.89,118.68c1.48-3.62,4.12-6.33,6.96-8.88.1.09.2.19.3.28-2.4,2.89-5.16,5.5-7,8.84-.09-.08-.18-.16-.27-.23Z"/>
  <path d="M291.9,138.85v9.69c-.36-3.23-1.06-6.46.03-9.66l-.03-.02Z"/>
  <path d="M293.32,150.44c-.85-3.39-.87-6.77,0-10.16l-.03-.02c0,3.4,0,6.8,0,10.2l.03-.02Z"/>
  <path d="M292.81,132.31c-.24,2.19-.23,4.42-.91,6.55l.03.02c-.14-2.24-.27-4.48.92-6.54l-.04-.03Z"/>
  <path d="M293.33,140.28c-.2-1.96.17-3.84.88-5.66l-.03-.02c.1,1.95-.29,3.82-.88,5.66l.03.02Z"/>
  <path d="M303.86,112.14c.66-1.09,1.61-1.88,2.67-2.55-.5,1.2-1.45,2.01-2.38,2.82-.1-.09-.19-.18-.29-.26Z"/>
  <path d="M294.23,128.58c0-1.42.51-2.66,1.29-3.81l.18.15c-.28,1.3-.58,2.6-1.5,3.63l.04.03Z"/>
  <path d="M295.52,121.04c.19-.94.72-1.68,1.37-2.36.09.08.18.16.27.23-.31.87-.76,1.66-1.45,2.28-.06-.05-.12-.11-.18-.16Z"/>
  <path d="M293.3,130.91c0-.9.21-1.72.94-2.33l-.04-.03c.1.94-.12,1.75-.93,2.33,0,0,.04.03.04.03Z"/>
  <path d="M290.03,139.78c-.05.69.23,1.42-.24,2.15-.36-.83-.16-1.49.27-2.13l-.03-.02Z"/>
  <path d="M303.85,109.8c.25-.49.62-.84,1.35-1.13-.08.82-.61,1.08-1.04,1.41-.1-.09-.2-.19-.3-.28Z"/>
  <path d="M290.06,139.81c-.07-.83-.23-1.68.43-2.38l-.03-.03c.1.84.1,1.66-.42,2.39l.03.02Z"/>
  <path d="M294.69,149.06c.59.69.42,1.53.47,2.33l.03-.03c-.61-.68-.51-1.51-.47-2.32l-.03.02Z"/>
  <path d="M293.29,150.46c.23.35.58.68.23,1.17-.41-.35-.17-.8-.2-1.19l-.03.02Z"/>
  <path d="M295.16,151.39c.22.35.56.67.22,1.16-.39-.35-.15-.79-.19-1.18l-.03.03Z"/>
  <path d="M292.84,132.34c-.08-.55-.06-1.06.45-1.42,0,0-.04-.03-.04-.03.07.54.08,1.07-.45,1.42,0,0,.04.03.04.03Z"/>
  <path d="M297.94,155.6c.44.37.48.88.46,1.4l.03-.03c-.48-.36-.51-.87-.46-1.4l-.03.03Z"/>
  <path d="M298.9,157.9c-.31-.23-.46-.54-.47-.93l-.03.03c.4.19.41.57.47.93l.03-.02Z"/>
  <polygon points="295.83 154.29 295.78 154.14 295.91 154.16 295.83 154.29"/>
  <path d="M299.33,158.87l-.43-.97-.03.02c.15.32.29.64.44.95h.02Z"/>
  <path d="M299.31,158.88h.02s-.02,0-.02,0Z"/>
</svg>